<svg xmlns="http://www.w3.org/2000/svg" width="1024" height="1024"><path fill="#d06e4c" d="M881 173c2.015 4.03 1.385 7.578 1 12-2.938 7.935-7.538 14.916-12.187 21.938C853.767 231.325 843.118 257.78 836 286l-1.402 5.488C828.215 317.93 825.845 344.92 824 372l-.281 4.107c-.99 16.404-1.124 32.84-1.344 49.268l-.068 4.93a2538 2538 0 0 0 .068 73.008l.065 4.215c.251 15.696.67 31.381 1.22 47.07 3.055 88.9-1.645 186.389-64.66 255.402-19.501 20.025-50.92 42.732-79.687 44.313C674 854 674 854 669 851c-1.734-3.467-1.378-6.171-1-10 3.555-6.33 7.907-10.907 13-16 6.275-7.612 11.942-15.535 17-24l1.96-3.27c21.565-36.808 30.299-78.103 35.227-120.043l.47-3.94c3.219-29.036 3.644-57.982 3.54-87.172q-.014-4.686-.02-9.372c-.03-21.675-.083-43.347-.677-65.015C732.333 286.237 732.333 286.237 765 227l1.645-3.2c4.536-8.443 10.61-15.046 17.355-21.8l2.691-2.727c11-10.59 24.012-17.223 38.309-22.273l3.2-1.148c14.557-4.86 38.97-11.657 52.8-2.852m-526 0c2.493 7.479.33 14.116-3 21-2.247 3.554-4.631 6.997-7.016 10.46-18.526 28.18-31.98 60.295-37.984 93.54l-.592 3.275c-9.19 51.425-10.62 102.949-10.596 155.1 0 1.642 0 3.284-.002 4.976.002 31.052.684 62.07 1.618 93.107.406 13.521.747 27.014.572 40.542l-.05 3.84C296.782 665.183 289.395 737.454 248 792l-3.5 4.75c-20.825 25.513-52.435 50.952-85.5 57.25-5.575.536-9.878.56-15-2-2.261-4.522-2.787-6.039-2-11 3.348-5.79 7.707-10.75 12.25-15.625C199.809 775.66 207.822 703.175 212 639l.299-4.338c.935-15.534.852-31.075.831-46.632q-.005-7.108.007-14.216c.003-17.49-.22-34.962-.637-52.447-.554-23.567-.655-47.125-.63-70.698q.006-8.483-.004-16.964c-.02-23.58-.002-47.146 1.134-70.705l.148-3.118c4.74-96.598 4.74-96.598 25.852-133.882l1.504-2.66c16.344-27.372 41.85-42.41 71.934-50.54 13.056-3.1 30.253-6.72 42.562.2"/><path fill="#d06f4d" d="M583.5 172.188c6.748 5.422 10.308 11.419 11.852 19.953l.64 3.496.633 3.613.656 3.566c8.55 47.45.457 98.757-27.113 138.848C558.951 357.372 546.211 371.08 531 383l-4.54 3.793c-5.696 4.557-11.8 8.139-18.148 11.707l-3.481 1.98c-10.847 6.148-21.796 12.024-32.956 17.582C455.6 426.177 439.482 434.62 426 447h-2l-2 4-3.062 2.938c-17.613 18.172-26.68 43.075-27.004 68.199 1.359 36.309 15.99 69.176 42.171 94.476 5.897 5.128 12.154 9.647 18.547 14.133 4.228 3.164 7.904 6.248 11.348 10.254l-1 4c-11.383 3.437-24.209-3.859-34-9-9.627-5.273-18.75-10.736-27-18l-2.473-2.11C372.005 591.9 357.13 559.174 354 523c-1.966-34.598 9.232-67.19 31.945-93.398A422 422 0 0 1 395 420l2.598-2.719c5.767-5.922 11.87-11.22 18.402-16.281l3.188-2.48c14.674-11.089 30.554-20.43 46.375-29.77 32.64-19.506 58.29-44.2 68.437-81.75 5.176-23.814 1.374-47.768-5-70.886-2.47-9.252-3.634-17.028 0-26.114 7.111-11.26 21.587-15.825 33.688-19.375 7.463-1.082 13.802-1.845 20.812 1.563"/><path fill="#d06e4d" d="M583.559 388.305c31.25 11.928 57.24 34.877 72.441 64.695 14.806 34.328 19.794 71.102 7.438 107.062C653.697 584.12 638.082 605.515 618 622l-3.297 2.734c-8.564 7-17.381 13.32-26.703 19.266l-3.902 2.492a608 608 0 0 1-20.848 12.57c-7.168 4.202-13.8 8.706-20.25 13.938l-3.426 2.773C515.836 695.543 499.55 719.83 496 751c-1.242 22.696 1.594 44.153 8.047 65.941 1.71 7.285 1.608 13.46-2.047 20.059-12.772 11.655-28.556 17.953-45.906 17.309-6.444-.643-9.994-2.371-14.906-6.559-4.339-6.465-5.14-12.122-6.188-19.75l-.84-5.113c-7.663-51.523.885-103.168 31.762-145.875 4.364-5.688 9.072-10.89 14.078-16.012l2.535-2.723c11.97-12.547 26.062-21.953 40.953-30.632a187 187 0 0 0 10.075-6.333c8.794-5.683 18.653-9.646 28.14-14.019C575.946 600.486 589.2 591.479 601 581l3.938-3.438c19.074-19.664 27.586-45.777 27.273-72.804C630.573 475.58 620.355 450.164 603 427l-3.375-4.813c-8.905-10.287-20.163-18.256-31.008-26.375C565 393 565 393 561 389v-4c6.335-3.168 16.231 1.237 22.559 3.305"/><path fill="#cf6e4c" d="M604 465c3 1 3 1 4.465 3.309 12.444 26.44 11.29 54.067 2.914 81.433-2.08 4.915-4.806 6.983-9.547 9.258-20.583 8.201-46.395 16.342-68.832 11v-2c2.168-1.41 2.168-1.41 5.188-3.062C557.196 554.053 571.493 540.755 583 522l2.07-2.953c10.13-14.856 15.185-33.304 18.078-50.867z"/><path fill="#cf6e4c" d="M521 407c3.824.054 7.235.41 11 1l3.707.547C552.896 411.802 569.809 420.41 582 433l4 3v2l4 2c5.643 6.196 7.227 8.396 6.938 16.688-.954 15.523-5.121 31.32-11.938 45.312l-1.914 4.059C576.718 519.235 576.718 519.235 572 524c-2-2-2-2-2.055-6.594l.18-5.906c.293-21.342-5.828-43.306-17.125-61.5l-2.246-3.793C545.48 437.479 539.748 429.634 533 422l-3.812-4.5C526 414 526 414 523.063 411.688L521 410z"/><path fill="#d07251" d="m476.938 453.75 4.134-.062 3.893-.016 3.582-.028L491 454c-1.48 4.44-4.762 5.074-8.703 7.152-30.751 17.234-48.823 47.36-58.61 80.348-1.13 4.117-1.979 8.096-2.75 12.313L420 558l-3 1c-12.02-20.38-13.855-47.361-8.262-69.93 1.77-5.708 4.012-10.035 7.262-15.07l3.125-4.875c13.205-14.057 39.463-15.304 57.813-15.375"/><path fill="#cf6e4d" d="M452 501h2c.07 3.83.032 7.611-.062 11.438-.34 33.33 13.287 64.294 36.062 88.562l3.625 4.188a142 142 0 0 0 6.813 7.187C503 615 503 615 503 617c-16.137-.403-29.994-5.177-44-13l-2.922-1.582C445.591 596.29 432.516 586.031 427 575c-.332-19.308 4.987-37.603 13-55l1.57-3.473c2.798-5.91 5.752-10.849 10.43-15.527m76.656-13.078c7.084 6.042 11.134 11.596 12.219 21.015.47 9.572-1.533 15.764-7.875 23.063-6.368 6.25-12.08 9.106-21 9.375-9.388-.318-15.075-3.612-21.793-9.969-4.39-4.786-6.67-9.972-7.207-16.406l-.375-3.625c.767-8.954 4.692-17.323 11.375-23.375 11.395-5.413 23.686-8.016 34.656-.078"/><path fill="#cf7251" d="M473 559c5 2 5 2 9.375 4.75 25.337 15.292 55.947 17.649 84.625 13.5l3.359-.475c5.641-.88 10.87-2.094 16.266-3.978C592 571 592 571 595 572c-8.845 10.328-21.136 17.684-33 24l-3.652 1.988c-7.81 4.22-15.705 8.252-23.668 12.172a190 190 0 0 0-6.735 3.524c-2.633 1.441-2.633 1.441-6.945 3.316-7.602-3.04-12.946-8.582-19-14l-4.062-3.625C473 571.667 473 571.667 473 559"/><path fill="#cd7251" d="M511 412a238 238 0 0 1 10 9l2.71 2.48c7.734 7.324 13.539 15.589 19.29 24.52l2.707 4.176c2.491 4.155 3.918 8.192 5.293 12.824-4.848-1.392-8.609-3.522-12.875-6.187C508.086 441.548 473.759 443.886 441 450c4.202-8.403 14.662-12.63 22.813-16.75l6.062-3.113 3.078-1.573c4.805-2.466 9.581-4.985 14.36-7.502Q492.149 418.52 497 416l2.685-1.461c6.874-3.65 6.874-3.65 11.315-2.539"/><path fill="#d07758" d="M521 407c3.824.054 7.235.41 11 1l3.707.547C552.896 411.802 569.809 420.41 582 433l4 3-1 2-4-2v-2l-5-2-2-4c-5-3-5-3-10-2v-2h-2v2h-2v2l-4 1-1 2h-2l-1 1h-2c.875 3.355 1.524 5.524 4 8v5l2 1 1 4 4 4c1.195 3.793 1.195 3.793 2.125 8.188l1.008 4.574A451 451 0 0 1 566 476.5l1 3.5 4 1 1 2c3.063-.125 3.063-.125 6-1v-4h4v4l3-2 2-1 2 1a524 524 0 0 0 2-10l1.563-3.812c2.012-5.863 2.372-10.985 2.437-17.188l-4 1c-1.676-4.07-3-7.567-3-12 9.232 10.258 9.232 10.258 8.938 18.688-.954 15.523-5.121 31.32-11.938 45.312l-1.914 4.059C576.718 519.235 576.718 519.235 572 524c-2-2-2-2-2.055-6.594l.18-5.906c.293-21.342-5.828-43.306-17.125-61.5l-2.246-3.793C545.48 437.479 539.748 429.634 533 422l-3.812-4.5C526 414 526 414 523.063 411.688L521 410z"/><path fill="#d06f4d" d="M522 583v2l1-2c3.014-.225 6.04-.305 9.063-.312l5.035-.051L541 583v3c5 2 5 2 10 2l1 2h-2v4h-4l.688 3.5.312 3.5q-3.5.062-7 0v6c-3.98 2.844-3.98 2.844-9.187 5.5l-5.168 2.719C521 617 521 617 516 615c-21.31-16.549-21.31-16.549-23-25h5l1 5h2l-1-5c0-4 0-4 1-8l1 2h2v-4c7.568-1.514 11.37-.82 18 3"/><path fill="#cf6e4c" d="M418 476c4 1 4 1 7.5 2.688L429 480l4-2c3.625-.25 3.625-.25 7 0l2 2h-4v4h-4c-1.875 4.5-1.875 4.5-3 9h2l1-3c5.296-1.352 5.296-1.352 8 0l1-2 2 1v3l-3 1-1 3.063-1 2.937h-3v6h-2v4h-3l-3 5h-2v9h-2l1 2c0 6 0 6-2 10h-3l-1 2c-2-1-2-1-4-4l-2-1v-2l-3-1v-4h2v-3l-3-1c-2.125-8.501-1.838-19.48 0-28h3l-.062-3.5c.07-5.064 1.339-9.777 5.062-13.5"/><path fill="#d69a83" d="M313 267c1.282 5.127.075 7.476-1.562 12.5-16.72 56.457-15.652 118.572-15.625 176.875l-.003 4.976c.002 31.052.683 62.07 1.618 93.107.572 19.082.768 38.082.135 57.167l-.12 4.156-.127 3.946-.11 3.518C297 626 297 626 296 628c-.562 3.662-1.027 7.333-1.5 11.008L294 642h-1c.101-3.064.262-6.127.438-9.187.63-12.684.68-25.367.687-38.063l.013-5.907c-.026-26.731-.026-26.731-3.138-29.843l-2 1q-.52-2.997-1-6l-2-1a149 149 0 0 1 4-5l1-3h2c.243-2.592.243-2.592.234-6.302l.004-4.233-.027-4.703-.004-4.907c-.006-5.389-.027-10.778-.047-16.168l-.016-11.165q-.019-13.227-.057-26.456-.068-25.101-.104-50.204-.016-8.276-.045-16.553l-.02-10.07-.02-4.704-.005-4.233-.01-3.71L293 379h1c1.185-8.506 1.385-17.053 1.719-25.625C296 349 296 349 297 348c.217-2.072.372-4.15.5-6.23l.25-3.874.25-4.084q.245-3.959.5-7.917l.219-3.568C299 319 299 319 299.78 315.507L300 313l-4 1v-4h3v-5h2v-4h2c.434-2.652.743-5.325 1-8 1.508-15.508 1.508-15.508 6-20h2c.625-3 .625-3 1-6"/><path fill="#ce7050" d="M822 535h1c.256 4.192.434 8.365.563 12.563l.124 4.053c1.951 70.673.638 145.442-30.687 210.384-3.909-5.864-2.153-14.294-1-21l3-1 .438-3.062c.185-.97.37-1.94.562-2.938h4c2.675-6.379 6.258-15.226 4-22l1-4-3 1v-5h-2c-.354-4.604-.102-6.796 2-11l-1-3 1-2h2v2l4-2 1 5 1 2h2c.046-3 .038-6 0-9l1-7c.04-3 .043-6 0-9v-4l-1-4-1 2-3.5-1.062L804 662l-1 3v-4c5-3 5-3 9-4v4h2l1-3 1-3h2c.193-2.718.238-5.447.23-8.172l-.005-5.14-.038-5.438-.001-5.39c-.046-13.3-.046-13.3-1.186-17.86h-2c.292-4.502.568-8.705 2-13l1-4 1-2c.098-3.311.13-6.625.125-9.937l.008-5.465C819 574 819 574 818 571c-.25-3.687-.25-3.687 0-7h3c.275 3.557.345 6.942.293 10.5l-.013 3.229a1661 1661 0 0 1-.092 10.271q-.024 3.468-.042 6.938c-.033 5.687-.085 11.375-.146 17.062q.176-16.449.372-32.898.066-5.603.125-11.204.088-8.028.187-16.054l.05-5.104.06-4.672.048-4.145z"/><path fill="#d17858" d="M583.559 388.305c16.977 6.48 34.944 16.382 46.441 30.695-4-2-4-2-6.937-4.563C620 412 620 412 615 411l-1 2-4 1-3 2 1 4-2 1v6l2 1v2l3 1c.688 3.562.688 3.562 1 7-3.596-3.596-6.225-7.04-9.125-11.188-8.121-11.124-17.918-18.427-28.844-26.718-4.594-3.526-8.935-6.998-13.031-11.094v-4c6.335-3.168 16.231 1.237 22.559 3.305"/><path fill="#cf7352" d="M419 605c5.986 1.197 7.062 2.777 11.125 7.188 6.96 7.202 14.365 12.83 22.527 18.558 4.228 3.164 7.904 6.248 11.348 10.254l-1 4c-11.383 3.437-24.209-3.859-34-9-24.789-13.577-24.789-13.577-28-20 3 .375 3 .375 6 1v2l5 1v-2c4.301-.215 7.81-.047 12 1l-1.5-4.875C421 609 421 609 421 607h-2z"/><path fill="#cf6e4d" d="M515 417c1.625 3.125 1.625 3.125 2 6h-3v3h-2v2h-2l-1.312 5.438L507 439l-10 2-2 2c-3.258.266-3.258.266-7.125.25l-3.883.016L481 443v-2c-2.922-.047-2.922-.047-6.75.25l-3.797.266C467 442 467 442 463 444c-4.03.647-7.906.822-12 1v-2h2v-2c5-2 5-2 9-2v-2l4.875-1.875C472 433 472 433 474 429a352 352 0 0 1 10-2c7.684-3.368 7.684-3.368 9-6h2v-2c6.398-2.81 13.54-5.732 20-2"/><path fill="#cf6e4c" d="M614 410c6.503.785 9.969 2.887 14 8 1.125 3.313 1.125 3.313 1 6l-4 1 1 3-4 2v2l2 1v6l4 1v-2h2l1 2h3v4h2v-3h2v5c3.548 1.104 5.46 1.18 9 0l1 4 3 1c3 6.111 3 6.111 3 9l-5 2-1-3-2-1-1 3-3-1c-.687-4.062-.687-4.062-1-8l-1 2h-3v-5l-3 1-1 3h-2l-3 3-2-1v-2h-2l-1-4-3-3-1.875-2.375C616 441 616 441 613.313 438.5 611 436 611 436 610 431l-2-1v-2l-3-1c0-6 0-6 2-8v-4l3-1 1-2 3 1zm11 12 2 2v-2z"/><path fill="#bf7a61" d="M747 281h1v10h1c.501 10.692-.98 21.506-3 32l-1 1c-5.214 40.68-3.313 82.423-3.146 123.31.056 15.29.072 30.58.094 45.87q.014 8.424.03 16.846c.047 28.223-.063 56.44-.415 84.661l-.06 5.328q-.085 7.092-.187 14.184l-.05 4.055c-.05 2.916-.15 5.832-.266 8.746h-1a192 192 0 0 1-.19-7.608l-.05-5.067-.041-5.579-.055-5.732q-.059-6.105-.11-12.21c-.08-9.558-.174-19.118-.27-28.677q-.044-4.488-.082-8.977c-.13-13.617-.416-27.224-.764-40.837C734.418 343.91 734.418 343.91 747 281"/><path fill="#cf7656" d="M471 577c2.786 2.786 4.584 5.323 6.688 8.625 3.705 5.633 7.732 10.431 12.312 15.375l3.625 4.188a142 142 0 0 0 6.813 7.187C503 615 503 615 503 617c-19.313-.483-36.046-7.364-52-18 4-1 4-1 7.688.25L462 600l1-5h2l1-3h2l1-5 2-1q.125-4.5 0-9"/><path fill="#cb7050" d="M435 462v2q-2.995.53-6 1c-3 2-3 2-4 6h3c2 3 2 3 3 5-.606 2.02-1.27 4.023-2 6l-1-2-5-1-2-2-4 1c-2.154 3.91-2.999 6.988-3.5 11.438L413 493h-3c-.328 4.348-.328 4.348-.25 10.063.015 1.867.03 3.735.047 5.66.162 4.202.333 8.166 1.203 12.277l2 1v3h-2l1 4 2 1v2h4v4c2.875 0 2.875 0 6-1l2-4-.879 3.906a576 576 0 0 0-2.086 9.875l-.973 4.719-.964 4.781L420 558l-3 1c-12.02-20.38-13.855-47.361-8.262-69.93 3.273-10.556 9.163-21.252 19.012-26.695C432 461 432 461 435 462"/><path fill="#cf6f4e" d="M409 589c2.047 2.145 2.047 2.145 3.75 4.813l1.734 2.644c1.268 2.127 2.409 4.328 3.516 6.543l4 2-3 2h2c1.176 2.59 1.176 2.59 2.313 5.938l1.175 3.34c.17.898.338 1.796.512 2.722-3 1-3 1-8.187-.062L412 618v2l-5-1v-2l-2.75-.375C401 616 401 616 397 612v-3h-2c-.812-2.812-.812-2.812-1-6l3-3q2.015-5.495 4-11c2.995-1.497 4.822-.882 8 0"/><path fill="#d89379" d="M535 236h1c1.782 9.383 2.228 18.284 2.063 27.813-.06 4.398-.084 8.788-.063 13.187h1l.313 4.375L540 286l4 2v4l-5-2-1 4h-2c-1.25 5-1.25 5-2 10h2v2h-4c-1.375 4-1.375 4-2 8h2v2l-6 2v2h2v6h-2v-2l-3-1v2h-2l-.375 4-.625 4h-4c-.875 3.438-.875 3.438-1 7l2 1v2l-3 2 2 3c-3.937.25-3.937.25-8 0l-1-4-4 4-3.187 2.063C497 352 497 352 496 355c-3 1-3 1-7 0l-1 4c-3.562.75-3.562.75-7 1 3.022-3.223 6.224-6.023 9.688-8.75 23.674-18.757 41.103-43.393 44.91-74.066.998-12.863.638-25.797-.477-38.641z"/><path fill="#d29178" d="m468 412 2 1 3.688-.125L477 413c-1 3-1 3-4.105 4.762l-4.082 1.925C455 426.392 440.893 433.705 429.375 444 426 447 426 447 424 447l-2 4-3.062 2.938C408.034 465.188 400.623 479.102 396 494h-1c-.187-5-.187-5 0-10h2v-3h2l-.562-3-.438-3h3v-2h2v-6h2q.509-3.499 1-7l2-1 2 1v-2l-2-1 4 1v-5h3l-1-3h2v-2l5-1 1-2h3v-4h2v-2l6-4v-2l3-1 1-2h3v-2h4v-2l5-1 1-2 4-1c1.058-2.644 2.1-5.298 3-8h6z"/><path fill="#cd7150" d="m725 827 1 4h2v-2h3v-2l5 1c-11.994 13.07-36.355 24.379-54.07 26.34-5.612.187-8.006-.386-12.93-3.34-1.677-3.354-1.271-6.315-1-10 1.938-3.625 1.938-3.625 4-6 1 2 1 2 0 6-.312 4.188-.312 4.188 1 8 7.876 1.7 13.524 1.31 21-2l1-2-2-2 1-1-2-1c2-5 2-5 3-7l4 1 1 2 1 1 2-3 1-1h5l3 3c4-1 4-1 6-2l2-4 4-2z"/><path fill="#e6bdab" d="M213 363h1c.092 3.187.107 6.376.098 9.565l-.005 3.085q-.006 3.339-.018 6.679-.019 5.314-.024 10.629c-.013 8.822-.037 17.644-.061 26.467q-.03 11.126-.046 22.252-.01 5.183-.032 10.364c-.022 9.768.06 19.485.584 29.243.826 16.305.648 32.628.637 48.95q0 5.366.003 10.73.002 11.18-.006 22.36-.006 14.314.004 28.628.005 11.051 0 22.102l.002 10.56q.003 7.364-.007 14.729l.007 4.376c-.015 7.155-.157 14.178-1.136 21.281h-1l-1 5-1 5h-1c.042-2.772.166-5.544.313-8.312l.295-5.654c.264-4.882.566-9.76.89-14.637 1.284-19.852 1.788-39.608 1.708-59.5-.018-4.604-.02-9.21-.02-13.815-.021-17.225-.282-34.436-.69-51.656-.55-23.587-.65-47.165-.626-70.757q.006-8.482-.004-16.963c-.034-39.695-.034-39.695.58-58.89l.117-3.744c.102-2.693.261-5.383.437-8.072"/><path fill="#cd7353" d="M530.188 489.125 533 492l-2 1a358 358 0 0 1-8-4h-2v-2c-8.184-.733-16.069-.15-24 2h-2c-1.312 3.5-1.312 3.5-2 7h3v2h2v2h2l-1 3h-2l-1.437 3.5L494 510h-3v-3h-4c-.46 3.281-.46 3.281-.375 7.5l.04 4.219c.11 1.083.22 2.165.335 3.281h2l.438 3 .562 3h3v-2l3-1v3l3-1 1-4h2c1 3 1 3 1 6l-3 5 2 1v3c3.723.227 7.281.277 11 .188l3.18-.042A927 927 0 0 0 524 538c-3.48 3.48-6.923 3.04-11.75 3.25-9.546-.15-15.214-3.382-22.043-9.844-4.39-4.786-6.67-9.972-7.207-16.406l-.375-3.625c.767-8.954 4.692-17.323 11.375-23.375 12.553-5.963 24.473-7.617 36.188 1.125"/><path fill="#d48b70" d="M393 544h1a491 491 0 0 1 2.625 9.5c4.829 17.355 12.077 31.937 23 46.25L422 603l-1 2-4-1-2-5a1996 1996 0 0 0-6-8v-2c-3.875-.687-3.875-.687-8 0-1.312 4.125-1.312 4.125-2 9a100 100 0 0 1-3 6c-1 3-1 3-1 5h2c3 5 3 5 4 7-13.63-6.815-26.435-25.142-32-39l2-4c1.841 3.99 3 6.556 3 11q2.994 1.02 6 2l1 4 3-1c3.188.188 3.188.188 6 1v4h-2c.8 3.752 1.787 7.361 3 11h2q.53-2.995 1-6l2-3v-2h-2v-4l3-2 .375-3.187L398 582l5 1c0-4.375 0-4.375-1-9l-3-1c-2.633-3.949-3.155-7.607-4.125-12.25l-1.07-5.016c-.689-4.05-1.06-7.643-.805-11.734"/><path fill="#cf6f4d" d="M514 428c5 1 5 1 6 2l1 2 5-1c6.337 3.169 8.595 8.506 11 15v4l5 1c1.313 3.188 1.313 3.188 1 6-4.657-.401-7.374-1.467-10.937-4.5C530 450 530 450 529 448l1-2-5 1v2c-4.5-.187-4.5-.187-9-1v-3l-3.437-.312L509 444c-1.062-3.062-1.062-3.062-1-6h2v-2h2v-6z"/><path fill="#cd6d4c" d="m574 542 4 2c0 4 0 4-2.437 6.563L573 553l-1 3h2v2h2v-2h5l3 3-1 5c-2.941.664-2.941.664-6.562.625l-3.63.04c-.926-.22-1.853-.44-2.808-.665v-5c-2.937-.062-2.937-.062-6 1l-1 4h-3v2l2 2c-7.076.943-13.876 1.243-21 1l-1-2c3.523-3.67 5.67-5.847 10.813-6.437C554 561 554 561 556 562l1-5c3.826-7.194 10.168-10.901 17-15"/><path fill="#d0704f" d="m791 762 1 2c-6.982 15.095-17.626 28.971-29 41l-3.375 3.938C757 812 757 812 754 815l-2-1 1-5h4c.438-3.937.438-3.937 0-8l-3-1v-4c3.438.063 3.438.063 7 1l1 3 3 1v-6h2l-1-5 1-2-2-1 1-3h2v-2l-3-1c.188-3.562.188-3.562 1-7h2l1 5c1-3 1-3 2-7l2 3 3-3v4c4 0 4 0 7-1-1-4-1-4-4-7l2-4h2l1 4 2.375-2.437C789 763 789 763 791 762"/><path fill="#d3947d" d="M452 501h2c.07 3.83.033 7.611-.062 11.438-.154 11.967.33 23.557 4.73 34.84C460 551 460 551 459 554l-2-1v-4h-2a539 539 0 0 1-3-11h-1c-.033-4.17.07-8.331.16-12.5L451 522h-2l-1 2v-10l-2 6-1-2h-2c-.215 4.301-.047 7.81 1 12l-3.375.438L437 532c-.762 3.292-.876 6.364-.93 9.738C436 545 436 545 435 550v5h-3l1 4-3 4c-.512 3.453-.512 3.453-.687 7.25l-.2 3.828L429 577c-2-2-2-2-2.152-5.176.952-18.337 5.486-35.18 13.152-51.824l1.57-3.473c2.798-5.91 5.752-10.849 10.43-15.527"/><path fill="#d9a58f" d="M881 173c2.015 4.03 1.385 7.578 1 12-3.598 9.718-9.648 18.257-15.336 26.844-3.1 4.836-5.807 9.799-8.422 14.91L857 229h-1c-.187-4-.187-4 0-8h2l.5-3 .5-3h2v-6l2-1-3-1h3v-2l3-1 1-3h4v-4h2l.438-2.625c.61-3.66 1.647-6.208 3.562-9.375l3-1c.375-3.375.375-3.375 0-7-3-3-3-3-8.625-3.25-5.173.13-10.236.633-15.375 1.25-3.978.262-7.957.498-11.937.719C841 176 841 176 840 177h-5v3l3 1v3h-2v-2l-2.687.5C830 183 830 183 825 181l2-2-4 1-4-1c46.437-15.908 46.437-15.908 62-6"/><path fill="#d28e75" d="m284 184 1 3h-3l-1 5c-3.562 2.813-3.562 2.813-7 5v-2c-4.923 1.704-7.232 3.232-11 7l-5 2a198 198 0 0 0-1 9l-3-1v2h-2v4l-1 2h-3l-2 5-2 3h2l-1 4-4 2-2 3h-2l-.937 3.313C235 244 235 244 232 247a138 138 0 0 0-1 8c-.812 5.438-.812 5.438-2 10l-4 1c.241-13.305 7.4-28.577 14-40l1.508-2.672C247.8 211.138 267.624 184 284 184"/><path fill="#cd6f4f" d="M450 703c1.186 4.745.46 7.391-1 12h-2c-.562 2.625-.562 2.625-1 6s-.437 3.375-1 6h-2c-.8 3.304-1.43 6.649-2 10l-.746 3.816-.692 3.871-.683 3.7L439 751l5-1h3l3-1 2 1v2h-3a150 150 0 0 0-1 6h-2v2h-2v4h-2v2l-5 3-1 2h-2a320 320 0 0 0-.008 8.777c.01 5.024-.194 10.018-.43 15.035l-.246 5.27L433 804h-1c-2.042-34.923 2.214-69.429 18-101"/><path fill="#c76f4f" d="M741 414h1c.165 3.876.259 7.735.312 11.614l.062 3.773c.067 4.197.124 8.395.18 12.593l.064 4.419c.49 34.549.536 69.098.512 103.65q-.006 13.009.004 26.017.004 10.212 0 20.423 0 4.802.002 9.603c.022 37.239.022 37.239-1.136 49.908h-1c-.952-6.522-1.094-12.877-1.022-19.46l.03-3.076q.032-3.315.071-6.63.064-5.381.114-10.762.075-7.784.159-15.567c.146-13.762.274-27.524.394-41.286l.038-4.265q.269-31.367.251-62.735l-.002-3.931q-.011-18.72-.061-37.439-.017-6.831-.028-13.662-.01-4.69-.032-9.38l-.01-5.554-.016-4.86z"/><path fill="#dfad9a" d="M747 281h1v10h1c.501 10.692-.98 21.506-3 32l-1 1a355 355 0 0 0-.719 9.809l-.19 3.017q-.3 4.806-.591 9.611-.293 4.758-.59 9.515-.272 4.353-.537 8.706a323 323 0 0 1-.885 10.347c-2.587 26.469-1.803 53.4-2.04 79.962q-.079 8.396-.167 16.79l-.04 5.255-.052 4.781-.038 4.231L739 489h-1a171 171 0 0 1-.145-7.221l-.02-4.817-.003-5.314-.013-5.478a8151 8151 0 0 1-.006-20.84c.018-118.484.018-118.484 9.187-164.33"/><path fill="#d99b83" d="M822 535h1c.256 4.192.434 8.365.563 12.563l.124 4.053c.678 24.566.644 49.084-.562 73.634l-.238 4.84c-.598 10.99-1.342 22.007-2.887 32.91h-1c-1.04-10.04-1.09-19.978-1-30.062q.038-4.393.063-8.786l.035-3.875C818 617 818 617 817 613h-2c.292-4.502.568-8.705 2-13l1-4 1-2c.098-3.311.13-6.625.125-9.937l.008-5.465C819 574 819 574 818 571c-.25-3.687-.25-3.687 0-7h3c.275 3.557.345 6.942.293 10.5l-.013 3.229a1661 1661 0 0 1-.092 10.271q-.024 3.468-.042 6.938c-.033 5.687-.085 11.375-.146 17.062q.176-16.449.372-32.898.066-5.603.125-11.204.088-8.028.187-16.054l.05-5.104.06-4.672.048-4.145z"/><path fill="#c77355" d="M853 229h3c-1.237 5.404-3.94 10.457-6.187 15.5-11.056 25.427-17.399 52.059-21.051 79.438L828 329h-1c-.13-3.925-.185-7.824-.187-11.75l-.038-3.309c-.013-7.546.857-14.522 2.225-21.941v-3l3-2q.549-4.995 1-10h2l-.562-3.062c-.51-4.594.739-6.794 2.562-10.938l-3-1 1-4 2 2c3.28-3.28 3.707-4.51 4-9l-2-1 2.938-.25L845 249l1-4h2l.5-5.5.5-5.5h2z"/><path fill="#d59882" d="M500 805c4.474 8.947 6.116 18.139 4.25 27.938-5.813 10.494-18.317 16.02-29.375 19.312-9.841 2.482-20.69 3.907-29.875-1.25-5.238-4.984-7.957-8.818-9-16v-6c2 4 2 4 2 8h2l.375 3.5.625 3.5h4c3 1 3 1 7 5 3.865 1.288 7.238 1.17 11.313 1.188l4.488.042c3.871-.212 6.697-.596 10.199-2.23l1-3h5v-2l3.438.125L491 843l1-4h3v-2h2l1-4h2c.23-3.988-.027-7.108-1-11 .086-2.919.239-5.836.438-8.75l.308-4.672z"/><path fill="#ce937e" d="M594 191c2.168 4.337 2.796 7.848 3.563 12.625l.753 4.602C603.344 243.334 599.84 280.234 586 313h-1c-.209-2.62-.315-5.248-.375-7.875l-.148-4.43L585 297l5-2c.223-3.594.223-3.594 0-8a183 183 0 0 1 1.438-8.5l.808-4.281L593 271h1c2.293-11.012 2.275-21.95 2.206-33.152-.019-3.133-.02-6.266-.02-9.399C596.14 213.14 596.14 213.14 595 212c-.237-3.518-.415-7.04-.562-10.562l-.254-5.88z"/><path fill="#c97051" d="m337.438 169.75 5.496-.078c4.843.314 7.886.92 12.066 3.328 1.895 5.684 1.147 10.498-1 16-1-3-1-3-1-5h-2v-3h-4v-5c-4.301-2.868-8.059-2.503-13.187-2.75l-5.543-.297L324 173v2h-3v2q-4.487.624-9 1h3v2l-2 1-1 3h-2v-2h-4v-2c-2.922.172-2.922.172-6.75.75-1.253.18-2.506.36-3.797.547C292 182 292 182 288 184l-4-1c16.493-8.06 35.073-13.094 53.438-13.25"/><path fill="#e9ccbb" d="M826 329h1c-.186 8.927-.967 17.851-1.719 26.746-4.175 50.52-3.5 101.43-3.245 152.086l.014 3.55q.011 3.269.038 6.537c.008 2.36-.033 4.721-.088 7.081h-1a512 512 0 0 1-.555-13.523l-.127-4.243c-.416-14.954-.472-29.901-.443-44.859l.005-4.29c.025-20.272.153-40.543.44-60.813q.054-3.911.101-7.822c.303-24.201.303-24.201 2.115-36.172.511-3.613.758-7.198.964-10.84.302-4.719.8-8.978 2.5-13.438"/><path fill="#d07859" d="m583 311 2 4c-6.573 17.599-21.16 41.44-37 52-.937-2.875-.937-2.875-1-6h4v-4h5c-.312-3-.312-3-1-6h2v-2l-4-2 5-2-3-3 3-1 1-3-2-1h3v-5c3.563-1.062 3.563-1.062 7-1l-1 4-3-1v2h2l1 5h3v-6l4-1c.407-2.322.744-4.657 1-7h2l1-4h2v-6h2v-2h2z"/><path fill="#d5937a" d="M473 559c5 2 5 2 9.375 4.75 10.19 6.19 21.347 9.687 32.871 12.488L518 577v1c-5 .188-5 .188-10 0v-2l-4.5-.5-4.5-.5v-2h-5c-1.187 3.5-1.187 3.5-2 7h-2a261 261 0 0 0 2 9v3c-19-25.356-19-25.356-19-33"/><path fill="#cf7657" d="M611 477c7.26 7.26 6.808 25.775 7.25 35.5-.161 13.984-2.035 34.285-12.25 44.5l-5 1 1-3 2-1-1-4 3 2c2.657-3.986 2.418-6.262 2-11a262 262 0 0 0-4-7v-6c3 .25 3 .25 6 1v-2h2q.52-2.997 1-6l2-2c.169-2.87.214-5.75.188-8.625l-.02-4.727L615 502h-1a267 267 0 0 1-1-8.562c-.57-5.499-1.178-10.971-2-16.438"/><path fill="#c97253" d="M818 653h1c1.972 25.603-5.51 52.685-13 77-1-4-1-4 0-7 .13-2.29.23-4.582.313-6.875.378-6.393 1.654-11.7 3.699-17.73 2.656-9.126 3.303-18.93 2.988-28.395v-4l-1-4-1 2-3.5-1.062L804 662l-1 3v-4c5-3 5-3 9-4v4h2l1-3 1-3h2z"/><path fill="#c07054" d="M217 329h1c.105 2.477.13 4.958.125 7.438l.008 4.183c-.108 4.359-.328 8.67-.608 13.018-.567 9.5-.845 18.995-1.056 28.51l-.126 5.472c-.51 23.36-.695 46.724-.895 70.088-.05 5.84-.109 11.679-.167 17.518l-.04 5.433-.052 4.928-.038 4.354L215 493h-1c-1.54-18.112-1.16-36.404-1.125-54.562l.006-4.522c.115-78.392.115-78.392 4.119-104.916"/><path fill="#ce7f62" d="M583.5 172.188c4.973 3.996 8.04 7.91 10.5 13.812v5c-2-3-2-3-2-5l-4.375-.937C583 184 583 184 581 181l-4-2-2-5c-4.653-.603-6.757-.122-11 2h-6l1 2-5-1-2 5-1-2q-5.01.952-10 2l-2-1c12.555-7.704 30.175-15.776 44.5-8.812"/><path fill="#d06f4e" d="M436 622v2h2v2l2.875.438L444 627l2 3 4 1v3l3 3c-4 3-4 3-7.437 2.813C442 639 442 639 437 637v-2h-4l-1-2-4-1v-2h-3v-2h-3v-2l-2-1c5-2 5-2 9-3 3-1 3-1 7 0"/><path fill="#c97252" d="m585 553 4 2 1 3h11c-16.84 12.63-45.002 14.371-65.375 12.625L533 570v-2c8.333-5 8.333-5 11-5-2 4-2 4-3 5 14.11.157 14.11.157 18-1l1-3 3-1 1-3c3.063-1 3.063-1 6-1v5c4.813-.25 4.813-.25 10-1l3 1 1-3h2v-4l-2-1z"/><path fill="#d1886c" d="M604 465c3 1 3 1 5.25 4.875C611 474 611 474 610 477l-5-3 .324 2.844.364 3.656.386 3.656L606 487h-3v4h-2l-1 4-2 4c-1.244 8.823-1.244 8.823-.312 13.313.312 2.687.312 2.687-1.188 5.5-3.13 2.74-5.45 2.72-9.5 3.187v3h-4c2-5 2-5 4.836-9.566 3.38-5.55 5.64-11.257 7.789-17.371l1.174-3.272c2.944-8.445 4.894-16.778 6.35-25.611z"/><path fill="#cf7050" d="M294 592h1c.105 3.924.14 7.826.125 11.75l-.006 3.544c-.05 10.258-.472 20.468-1.119 30.706l.438-5 .562-5h1c.346 11-.648 21.647-1.937 32.563l-.553 4.884c-1.347 11.736-1.347 11.736-2.51 17.553h-1c.092-2.669.25-5.336.438-8l.308-4.5.254-3.5-.437 3-.563 3h-1c-.102-2.123-.13-4.25-.125-6.375l-.008-3.586C289 660 289 660 290 658c.28-2.181.502-4.37.688-6.562l.324-3.567L291 645l-2-1c-.3-3.64-.3-3.64-.312-8.25l-.051-4.578C289 627 289 627 292 622c.258-3.008.258-3.008.125-6.125C292 610 292 610 293 607l-1-5 1-1 .5-4.562z"/><path fill="#ce6d4d" d="M435 461c4.563.188 4.563.188 9 1l1 3 4-1c1.676 4.07 3 7.567 3 12h2c0 5 0 5-2 9l-5 1-1-4c-1.114-3.563-2.321-6.643-4-10l-4 2-1-3h-4l-2-4-4-2 2.875-.875C433 463 433 463 435 461"/><path fill="#d06d4b" d="M567 388c8.533.11 14.505 1.92 22 6l2 4h5v4h-2l-.812 3.063L592 408c-5.43-1.086-6.914-2.51-11-6l-5-2c-2-2.312-2-2.312-4-5l-2.75-2.687C567 390 567 390 567 388"/><path fill="#d3967e" d="M438 621c4.378 2.189 7.956 4.817 11.875 7.75l4.18 3.11c3.623 2.883 6.945 5.61 9.945 9.14l-1 4c-11.413 3.445-24.159-3.904-34-9a579 579 0 0 1-7-4c4.556-1.139 6.658-.587 11 1v2h4v2c8.276 1.655 8.276 1.655 12 2l3-2v-2l-3-1 1-3-5-1-1-3-5-2z"/><path fill="#d59c85" d="M595 572c-3.492 4.11-7.78 7.354-12 10.688l-3.625 2.886C576 588 576 588 571 590l-1-3h5l-1-5c-4.09-.495-7.779-.648-11.875-.602l-3.62-.024c-3.836-.023-7.67-.013-11.505.001q-5.753.008-11.504-.02a551 551 0 0 0-7.175.01c-2.776-.01-5.551-.172-8.321-.365l-1-3c3.21.176 6.421.377 9.625.656 12.974 1.02 25.519.448 38.375-1.406l3.36-.475c5.64-.88 10.87-2.094 16.265-3.978C592 571 592 571 595 572"/><path fill="#d28c72" d="M533 493c6.102 5.62 7.42 10.684 7.957 18.938.12 8.506-2.445 13.717-7.957 20.062-6.429 6-6.429 6-9 6q.484-4.002 1-8l-.687-3.5L524 524h4v2l4-1 2 1c1.375-4.375 1.375-4.375 2-9l-4-1c.063-3.062.063-3.062 1-6h3c-.25-4.9-1.165-8.411-3-13z"/><path fill="#d38568" d="M435 462v2q-2.995.53-6 1c-3 2-3 2-4 6h3c2 3 2 3 3 5-.606 2.02-1.27 4.023-2 6l-1-2-5-1-2-2-4 1c-2.154 3.91-2.999 6.988-3.5 11.438L413 493h-3c-.087 2.665-.08 5.335 0 8l-1 3c-.264 4.99-.445 9.976-.605 14.97A391 391 0 0 1 408 527h-1c-3.39-15.511-1.525-33.938 5.813-48.062C425.74 458.913 425.74 458.913 435 462"/><path fill="#cf957e" d="m472 429 2 1c-2.278 4.557-3.415 5.166-8 7h-4v2l-9 2v2h-2v2c3.246-.426 3.246-.426 7.438-1.312l4.183-.864C466 442 466 442 467 441c2.352-.125 4.708-.176 7.063-.187l3.91-.043L481 441v2c5.778.304 11.53.417 17.314.479l3.682.08 3.412.04L508 444l1 3c-2.535.11-2.535.11-6.277-.25l-4.152-.35-4.509-.4c-18.444-1.398-34.93.66-53.062 4 5.233-10.466 20.86-16.326 31-21"/><path fill="#d0704d" d="m581 596 2 1-3 1v3l-3 3-1 3 4 2 1 4 3 1-2 4h-4v2h-2v-2c-2.937-1.312-2.937-1.312-6-2l-1 3-3-1v-3l2-1-3-1v-2q-5.511.375-11 1c3.552-2.664 6.71-4.41 10.688-6.312 4.41-2.157 8.535-4.379 12.562-7.188z"/><path fill="#d49a83" d="M528 429c10.156 9.204 19.326 22.817 23 36-4.907-1.41-8.784-3.586-13.125-6.25-8.042-4.642-16.13-7.235-25.062-9.656L509 448v-1c4.303-.275 7.704.16 11.938 1.125L525 449v-2l5-1 1 4 4 3v2a140 140 0 0 0 8 2c-.75-2.937-.75-2.937-2-6l-4-1a379 379 0 0 1-3-10 95 95 0 0 0-4-5c-1.25-3.312-1.25-3.312-2-6"/><path fill="#d18469" d="M517 327c3 4 3 4 3 6h-4c-.875 3.438-.875 3.438-1 7l2 1v2l-3 2 2 3c-3.937.25-3.937.25-8 0l-1-4-4 4-3.187 2.063C497 352 497 352 496 355c-3 1-3 1-7 0l-1 4c-3.562.75-3.562.75-7 1 3.022-3.223 6.224-6.023 9.688-8.75 8.21-6.505 15.645-13.35 22.5-21.281C515 328 515 328 517 327"/><path fill="#d59983" d="M224 266h1c.134 3.805.088 7.419-.48 11.188-.603 4.424-.785 8.788-.958 13.25-.883 18.705-.883 18.705-2.562 26.562h-2v12h-2c0 3.014.009 6.029.059 9.043-.1 6.697-.9 13.362-2.059 19.957h-1c-.947-29.796 1.637-63.251 10-92"/><path fill="#d08e74" d="m246 787 2 2 2-1c-8.29 16.581-25.946 31.542-41 42l-4.75 3.313L201 835l-1-3-3 1v-2h2v-2l4 1v-2l2.938-.375L209 827l1-4 2 1v-2h2l1-3h3v-2h3v-3l4-1v-3l-2-1 3-2v2h3l1-4h5v-5h2l1-3 2 1v-3h2v-2h3v-5z"/><path fill="#d39076" d="m624 549 2 3c-2.213 4.561-4.736 8.631-7.687 12.75C616 568 616 568 614 573h-2l-1 5a506 506 0 0 1-2 6l-1 4-4 2-1-3-3 3h-2l-1 2-5 1-5 3-4-1 2.273-1.652c15.443-11.378 29.25-24.23 37.403-42z"/><path fill="#c1785d" d="M820 398h1a229 229 0 0 1 .098 8.32l-.01 5.522-.013 2.99q-.019 4.656-.024 9.312c-.013 7.742-.037 15.484-.061 23.225q-.036 11.303-.053 22.604l-.004 3.182c-.014 16.276.292 32.515.958 48.777.58 16.342.58 16.342.109 23.068h-2c-1.157-5.785-1.14-11.334-1.13-17.203l-.005-3.752q-.004-6.148.002-12.295l-.003-8.562q-.001-8.982.006-17.966.006-11.478-.004-22.955-.004-8.849 0-17.697 0-4.23-.002-8.458-.003-5.937.007-11.874l-.007-3.49c.02-7.63.394-15.152 1.136-22.748"/><path fill="#d18468" d="m468 412 2 1 3.688-.125L477 413c-1 3-1 3-4.105 4.762l-4.082 1.925C448.469 429.532 448.469 429.532 445 433c-4.625.25-4.625.25-9 0l1-3h3v-2h4v-2l5-1 1-2 4-1c1.058-2.644 2.1-5.298 3-8h6z"/><path fill="#d59a83" d="M521 407c10.463.147 23.545 1.659 32 8l-4.312-.437c-5.56-.55-11.123-1.064-16.688-1.563l2 3v5l5 1c2 4 2 4 2 6h5c1.858 3.717 2.74 6.725 3.625 10.75.26 1.17.52 2.34.79 3.547.192.892.386 1.784.585 2.703-2.688-2.688-4.257-4.906-6.187-8.125-3.469-5.542-7.368-10.082-11.813-14.875l-3.687-4.312c-3.313-3.688-3.313-3.688-6.25-6L521 410z"/><path fill="#d18568" d="m537 182 2 1c-4.2 5.6-4.2 5.6-7 7-1.236 6.18-1.236 10.82 0 17v6l2 5 2-3 2 1c.409 2.656.745 5.325 1 8v-5l4 2c-.762 3.58-1.968 5.951-4 9-.355 2.33-.691 4.663-1 7h-1a406 406 0 0 1-1-10l-.437 4.5L535 236h-1a451 451 0 0 1-3.562-13.187l-.999-3.717c-2.518-9.882-4.34-19.344-.439-29.096 2.472-3.46 4.532-5.399 8-8"/><path fill="#d39c86" d="m551 445 5 1 1 4 4 4c1.195 3.793 1.195 3.793 2.125 8.188l1.008 4.574A451 451 0 0 1 566 476.5l1 3.5 4 1c2.876 8.655 2.381 17.905 2.479 26.93.067 3.027.278 6.051.521 9.07l3-1c-2 4-2 4-6 8-1.869-3.738-.912-8.418-.812-12.5.202-21.625-6.22-42.88-17.188-61.5z"/><path fill="#ce8569" d="M289 683h1c-.413 8.803-1.921 16.922-4.125 25.438l-.937 3.677c-3.64 14.003-7.907 27.707-13.938 40.885l-2-4c.94-2.688 1.949-5.353 3-8 .8-4.804 1-9.104 1-14l4 1v-6h2c.41-3.325.731-6.66 1-10 .438-4.125.438-4.125 1-7h2v-2h2v-6h1l.438-5 .562-5h2z"/><path fill="#d27f61" d="m352 189 1 3c-1.922 3.344-1.922 3.344-4.75 7.5-6.18 9.282-11.748 18.806-17.25 28.5-1.79-3.578.07-7.28 1-11l1-2h2c.813-3 .813-3 1-6h-3l-1-3 4 1-1-5 1-2v-4l5-1 1-2v2h3v-2h5z"/><path fill="#d28c72" d="m518 386 1 2 3 1c-4.008 4.008-7.42 6.072-12.375 8.75a930 930 0 0 0-20.61 11.559C480.652 414 480.652 414 478 414v-4h4l1-3 3.5.063L490 407l1-4 3-3h-2l1-4 1 2h4v-3h2v-3l4 1v2l5-1v-3c6 0 6 0 8 1v-5z"/><path fill="#bc7559" d="M295 370h1c.106 2.456.13 4.916.125 7.375l.008 4.148c-.105 4.324-.343 8.58-.637 12.891-.695 12.37-.608 24.735-.571 37.12q.019 6.592.024 13.186.018 13.953.051 27.905.037 16.267.056 32.536.01 6.51.032 13.023l.01 7.893.015 3.683c0 2.747-.05 5.494-.113 8.24h-1c-.25-4.017-.426-8.016-.554-12.038l-.128-3.819c-.446-14.51-.463-29.018-.45-43.534l-.004-8.69q-.002-9 .006-18 .006-11.565-.004-23.129-.005-8.922 0-17.844l-.002-8.541q-.003-5.912.007-11.824l-.007-3.579c.008-2.667.065-5.335.136-8.002h1l.5-4.5z"/><path fill="#d89a82" d="M485 501c1.266 5.065 1 9.788 1 15 .375 3.688.375 3.688 1 6h2l.438 3 .562 3h3v-2l3-1v3l3-1 1-4h2c1 3 1 3 1 6l-3 5 2 1v3c3.723.227 7.281.277 11 .188l3.18-.042A927 927 0 0 0 524 538c-3.48 3.48-6.923 3.04-11.75 3.25-9.546-.15-15.214-3.382-22.043-9.844-5.627-6.135-7.018-12.383-7.394-20.406.176-3.767.796-6.522 2.187-10"/><path fill="#cd9179" d="M502 720c1.453 4.36-.44 7.284-1.875 11.473-6.864 21.522-4.988 43.841-.902 65.68C500 802 500 802 499 805c-1.463-4.05-2.546-8.133-3.562-12.312C494 787 494 787 493 786c-.26-6.766-.185-13.542-.187-20.312l-.038-5.752c-.01-9.517 0-18.652 2.225-27.936h2c.392-2.659.72-5.327 1-8l1-3z"/><path fill="#d1886d" d="M183 781c1.353 5.413-.16 8.822-2 14h-2l-1 4-2 3h-2l-2 5-2.375 4.688L168 816l4 2v2l-4 1v3l-2.875-.5L162 823l-2 3c-3.125.688-3.125.688-6 1 2-4 2-4 5.813-8.437 4.5-5.413 8.242-11.15 11.937-17.125l1.644-2.649c3.538-5.795 6.646-11.687 9.606-17.789"/><path fill="#cf6d4b" d="M530 412c14.524.841 14.524.841 21 3v2h2l1 3-4 2v2h-4l-1 4h-4v-2l-2-1v-2l-5-2c-1.187-3.5-1.187-3.5-2-7z"/><path fill="#d17a5b" d="M630 419c4.6 3.587 8.125 7.389 11.688 12l2.824 3.625C650 442.069 650 442.069 650 445l-5-1v-2h-3v3l-3-1-.375-4.625L638 435l-5 1v-4l-4-1-2-1v-4h3c.188-3.5.188-3.5 0-7"/><path fill="#c77e63" d="m861.063 170.75 3.45-.023c2.83.006 5.66.129 8.487.273l1 2c-9.567 2.242-19.716 2.349-29.492 2.754C841 176 841 176 840 177h-5v3l3 1v3h-2v-2l-2.687.5C830 183 830 183 825 181l2-2-4 1-4-1a2315 2315 0 0 1 8.875-2.875l4.992-1.617c9.569-2.811 18.294-3.827 28.196-3.758"/><path fill="#daa38e" d="M658 460c6.778 10.166 9.003 24.103 11 36l.523 2.795c.855 5.748.662 11.53.664 17.33l.038 3.805c.012 7.926-.615 15.301-2.225 23.07h-1a351 351 0 0 1-.125-11l-.012-3.18c.004-2.607.065-5.214.137-7.82h1c.273-12.273.273-12.273-1-18l-2 3c-.125-10.625-.125-10.625 1-14l-1-3c-1-3-1-3 0-6h-2v-4h-2v-6l-3-1c-.432-4.019-.128-7.951 0-12"/><path fill="#d3947c" d="m477.25 453.688 4.066-.05c3.23-.001 6.46.162 9.684.362-1.508 4.525-4.97 5.285-9.004 7.352-2.869 1.578-5.334 3.354-7.933 5.336L470 469c-2.625-2.062-2.625-2.062-4-5l1-1h6l1-5c-4.726-1.182-8.88-1.058-13.75-1-3.083.037-6.167.048-9.25 0v-1c8.794-2.017 17.251-2.335 26.25-2.312"/><path fill="#d19179" d="m725 827 1 4h2v-2h3v-2l5 1c-9.474 10.324-25.095 17.002-38 22l-3-1h2l2-4h4v-2h4l2-4c3-2 3-2 7-3 2-1 2-1 4-5l4-2z"/><path fill="#cf886d" d="M582 524c1 4 1 4-.437 7.313C580 535 580 535 580 538.813V542l-3 2-3-1c-5 3-5 3-8 6l-5 3c-2.639 3.445-3.94 5.763-5 10-4.375.25-4.375.25-9 0h-3l2.125-1.504c5.908-4.23 11.521-8.567 16.875-13.496l2.398-2.203C571.983 538.516 577.055 531.62 582 524"/><path fill="#d2957d" d="M600 629h4l1 3c-9.739 8.829-21.771 15.281-33 22l-4.41 2.883L564 659l-2-1-1-3h2v-5h6a196 196 0 0 0 7-3h3v-2h3v-2l2-2h5l1-4h5v-3h2l3-3z"/><path fill="#d0856a" d="M802 730h3c-.987 7.09-3.638 13.432-6.5 19.938l-1.223 2.86c-3.006 6.93-3.006 6.93-5.277 9.202-1.43-7.153-1.201-13.794 0-21l3-1 .438-3.062c.185-.97.37-1.94.562-2.938h4z"/><path fill="#d7a089" d="M554 612v3h-2l-1 4q-4.5.125-9 0v2l-3.25.688c-4.91 1.718-5.323 3.838-7.75 8.312-5.2 4.69-9.09 5.605-16 6l-5 1c4.104-4.104 7.843-6.396 12.875-9.25l5.121-2.918L533 622l7.938-4.562C550.422 612 550.422 612 554 612"/><path fill="#d1876b" d="m269 753 1 2c-4.68 11.27-11.136 21.938-18 32h-1v-6h2v-5a257 257 0 0 1 2-7v-2l-1-1c2.358-4.715 4.133-5.378 9-7l1 2 .25-2.875L265 755z"/><path fill="#d49983" d="M451 485c0 4.602-3.042 6.55-6 10-2.09 3.31-4.08 6.595-6 10l-1.581 2.776c-3.738 6.69-6.81 13.47-9.43 20.681L427 531h-1c-.687-4-.687-4-1-8h2v-5l-2-1 2-5 2 1 2-5 4 1v-4h2v-6h3l.438-2.937L441 493l4-1v-4h2v-2z"/><path fill="#cf927b" d="M212 658h1c1.028 12.62-.504 25.165-1.937 37.688l-.552 4.827c-1.016 8.488-1.016 8.488-1.511 11.485h-1c-1.07 3.593-2.01 7.214-2.965 10.84L204 726l-2 1c.965-9.822 2.625-19.533 4.184-29.273.897-5.66 1.77-11.274 2.347-16.977C209 677 209 677 211 673c.266-2.576.446-5.162.563-7.75.112-2.418.248-4.836.437-7.25"/><path fill="#d08267" d="M715 767c1.291 5.166.074 8.82-1 14v6l-3 4 1 4-4-1-2 4c-3.202 3.549-5.812 5.487-10 8 1.659-4.147 3.425-7.56 5.688-11.375 5.144-8.893 9.497-18.088 13.312-27.625"/><path fill="#d18a6f" d="m457 375-1 4-3 1c-2 4-2 4-2 5l-1 5a236 236 0 0 1-7-1l-2 4h-6l-1 1q-3.5.062-7 0c3.237-3.237 5.77-5.296 9.57-7.672l3.215-2.012 3.34-2.066 3.363-2.113C454.741 375 454.741 375 457 375"/><path fill="#d28d72" d="M533 290h1c-.04 6.804-.59 13.385-2.687 19.875L530 314h2v2l-6 2v2h2v6h-2v-2l-3-1v2h-2l-2 4-3-1c1.783-4.457 3.805-8.14 6.25-12.25 4.175-7.3 7.07-14.606 9.656-22.594z"/><path fill="#d7987f" d="M355 173c1.895 5.684 1.147 10.498-1 16-1-3-1-3-1-5h-2v-3h-4v-5c-4.327-2.885-8.085-2.43-13.25-2.625l-5.578-.227a246 246 0 0 0-9.344-.109L316 173v-1c11.781-2.99 28.116-5.213 39 1"/><path fill="#d38c72" d="M758 241h1c.128 1.997.176 4 .188 6l.042 3.375L759 253h-2c-.25 3.5-.25 3.5 0 7h2v2l2 1a143 143 0 0 1-4 8l-1 2-2-4-.187 2.688c-.995 4.053-2.714 5.61-5.813 8.312.568-8.175 2.697-15.62 5-23.437l1.117-3.874c2.719-9.36 2.719-9.36 3.883-11.689"/><path fill="#d59e87" d="M584.09 388.59c4.9 1.767 9.343 3.912 13.91 6.41l-4 2v-2h-5a986 986 0 0 1-8.062-3.82c-4.248-1.706-8.399-1.983-12.938-2.18 1.97 3.94 3.892 5.97 7 9l2 3c-6.067-3.034-11.21-7.21-16-12v-4c6.542-3.271 16.592 1.493 23.09 3.59"/><path fill="#d38e75" d="M327 228h3c-1.226 5.202-3.707 10.104-5.812 15-3.36 7.91-6.427 15.863-9.188 24-1.677-5.031-.618-9.774 0-15h2l-.562-5.375L316 241l3-2 1.375-3.062L322 233l5-1z"/><path fill="#ecc4b4" d="M739 499h1c.215 3.961.379 7.91.5 11.875.366 11.857.366 11.857 1.5 14.125.07 3.196.068 6.394.038 9.59l-.025 3.016q-.043 4.95-.099 9.902l-.064 6.852q-.069 7.185-.147 14.37a9644 9644 0 0 0-.178 18.476q-.065 7.075-.139 14.15-.034 3.407-.065 6.815-.043 4.75-.1 9.497l-.056 5.473L741 627h-1a199 199 0 0 1-.205-7.766l-.06-5.16-.051-5.68-.063-5.854q-.067-6.194-.124-12.387-.073-7.761-.158-15.523c-.216-20.039-.383-40.078-.429-60.118l-.02-4.79-.003-4.31-.007-3.774z"/><path fill="#d38c71" d="M695 806c1 4 1 4-.75 8.063L693 818l5 3-2 3h-2v2h-2v-2l-2 1-1 3-5-2-2 3-5 3-4 3c2.012-4.025 4.024-6.286 7.125-9.5 5.389-5.765 9.657-11.857 13.875-18.5z"/><path fill="#d5977f" d="M577 401c5.906 1.181 8.122 3.393 12.5 7.285C592 410 592 410 597 410l2 4 4 1-3 3 4 2c.73 2.314 1.401 4.648 2 7l2 1v2l3 1c.688 3.563.688 3.563 1 7-3.596-3.596-6.225-7.04-9.125-11.187-4.738-6.52-9.6-11.791-15.875-16.813l-2.848-2.285-2.777-2.215L577 402z"/><path fill="#d59a84" d="M511 412c3.178 2.49 6.035 5.253 9 8l-4 1-1-4h-5l-2-1a101 101 0 0 0-6.625 1.313l-3.602.8L495 419v2h-2l-1 3c-10.467 5.862-10.467 5.862-16 6l-2-2c3.548-2.092 7.07-3.977 10.75-5.812l3.098-1.58a788 788 0 0 1 6.154-3.099q2.948-1.483 5.855-3.046c6.718-3.57 6.718-3.57 11.143-2.463"/><path fill="#cf7d60" d="M458 553c3 1 3 1 4.316 3.582l1.247 3.23c1.369 3.503 2.752 6.818 4.437 10.188v5c-5-2-5-2-10-5h-4l1-4h-2v-6l3-1v2h2l-.062-4.062z"/><path fill="#cc886d" d="M595 262h1c1.153 18.625-2.726 33.968-10 51h-1c-.209-2.62-.315-5.248-.375-7.875l-.148-4.43L585 297l5-2c.223-3.594.223-3.594 0-8a183 183 0 0 1 1.438-8.5l.808-4.281L593 271h1l.5-4.5z"/><path fill="#d6a691" d="M451 598c4.614.42 6.133 1.1 10 4l4 1v2l3.375.438L472 606l2 3c6.872 2.233 13.724 4.107 21 4 .125-2.937.125-2.937-1-6 6.75 5.5 6.75 5.5 9 10-19.308-.965-36.037-7.026-52-18z"/><path fill="#d1704f" d="m182 832 4 1v3l-3 3 2.625-1c3.375-1 3.375-1 9.375-1v-2h5c-4.31 3.796-9.009 6.238-14.125 8.813l-4.82 2.457C177 848 177 848 174 847l2-1-.5-4.937L175 836l2-2 2 2z"/><path fill="#d2957e" d="M587 438c4.36 3.537 7.072 6.12 10 11 1.295 16.433-4.06 33.881-10 49-2.758-8.273 1.946-23.067 5.188-31.062 2.289-6.236 2.812-11.3 2.812-17.938l-4 1c-1.687-4.25-1.687-4.25-3-9z"/><path fill="#cd6b49" d="M372 458c1.561 6.245 2.26 11.52 2 18-2-1-2-1-3-2h-4v2l3 1-2 1v2l-4 3c-1-1-1-1-1.25-3.75.342-5.816 1.06-11.818 3.25-17.25h4z"/><path fill="#d38f74" d="M386 430v3l-2 2-1 5-4 4v3l3 2-1 5-3.312.375L374 455a123 123 0 0 0-4 7h-4c2.185-11.307 11.984-23.984 20-32"/><path fill="#d1886d" d="M772 789h2c-1.077 5.384-2.023 6.551-5.687 10.375l-2.735 2.898L763 805a3069 3069 0 0 0-6 7l-3 3-2-1 1-5h4c.438-3.937.438-3.937 0-8l-3-1v-4c3.438.063 3.438.063 7 1l1 3 3 1v-6h2l1-4h3z"/><path fill="#cd6b49" d="M360 518h2v3l4 2c.438 4.188.438 4.188 0 8l-3-1 3 3c.313 3.688.313 3.688 0 7h-2l-2 5-1-2h-2c-.178-3.632-.23-7.181-.187-10.812l.001-3.104c.046-7.663.046-7.663 1.186-11.084"/><path fill="#dfb19f" d="M739 629h1c.296 4.588.519 9.157.688 13.75l.181 3.945.143 3.79.14 3.49C741 657 741 657 739 661a248 248 0 0 0-.562 11.625c-.627 21.564-.627 21.564-3.438 24.375a140 140 0 0 0-1.625 7.625c-.26 1.374-.52 2.748-.79 4.164-.192 1.06-.386 2.12-.585 3.211-1.088-4.35-.767-6.855-.11-11.262l.648-4.525.712-4.9c2.311-16.524 3.788-33.012 4.849-49.66l.323-5.02.268-4.472z"/><path fill="#cb8368" d="M667 498h1c1.12 8.959 1.385 17.978 1 27h-1a513 513 0 0 0-.19 7.42c-.209 10.861-1.129 20.569-5.81 30.58h-1a162 162 0 0 1 0-11h2c2.07-12.007 2.188-24.18 1.973-36.328L665 512h1c.214-2.33.37-4.664.5-7s.286-4.67.5-7"/><path fill="#d7a590" d="M408 529c3.493 4.657 3.093 6.402 3 12h2a833 833 0 0 1 4 10c1-1 1-1 1.375-5.75C419 540 419 540 422 535h2l2-4-.879 3.906a576 576 0 0 0-2.086 9.875c-.32 1.557-.642 3.115-.973 4.719l-.964 4.781L420 558l-3 1c-5.602-8.55-9-19.786-9-30"/><path fill="#d28f76" d="m471 671 1 4-2 2-1 4 3 2-3 1-2-1 1 3-2.875.813L462 688c-.75 3.125-.75 3.125-1 6h-2l-1 4-2 4-5 1c1.878-11.563 12.639-23.276 20-32"/><path fill="#d09078" d="m527 681 4 2c-1.805 1.944-3.64 3.865-5.578 5.676-6.841 6.565-11.842 14.33-16.66 22.441C507 714 507 714 504 718v-3h-2v-2h2l1-3h2v-4h2v-3h2v-4l2-1 1-3h3v-4l4-4h2v-4z"/><path fill="#d29780" d="m583 311 2 4c-5.46 14.618-15.099 28.07-25 40h-1v-5l2-1v-3h2l1-4 5-1v-6l4-1c.407-2.322.744-4.657 1-7h2l1-4h2v-6h2v-2h2z"/><path fill="#d28e74" d="M775 212c1 2 1 2 .188 5.625L774 221h-2l-.437 3.938L771 229l-3 1v2h2v2h2l-1 3-3 1v-4l-5 2v4l-4 1c1.094-5.472 3.032-9.077 5.75-13.937l2.61-4.715c2.308-3.801 4.548-7.154 7.64-10.348"/><path fill="#d69b84" d="M394 494c1.178 4.714.464 7.312-.5 12.063-2.169 12.698-1.292 25.148-.5 37.937l-2-4-2-2c-2.338-5.215-2.12-9.792-1.812-15.437l.23-4.934c.566-4.501 1.668-7.56 3.582-11.629a140 140 0 0 0 1.688-6.437z"/><path fill="#d09c88" d="M213 471h1c1.34 16.09 1.157 32.308 1.13 48.44q-.005 6.008.007 12.017 0 3.814-.004 7.629l.006 3.635c-.008 2.76-.067 5.52-.139 8.279h-1c-1.766-9.437-1.425-19.181-1.625-28.75l-.068-3.116c-.34-16.043-.62-32.125.693-48.134"/><path fill="#d8a18a" d="M493 592h2l2.375 3 2.625 3h4v2l4 1 1 4h2v3l4 2 2 4c3.125-.125 3.125-.125 6-1v-2c4.216-2.108 6.398-2.177 11-2-3.928 3.928-7.909 5.827-13 8-10.518-4.207-19.343-13.742-27-22z"/><path fill="#d59a83" d="M728 723h1c.157 2.83.223 5.666.25 8.5l.078 4.781c-.337 4.843-1.427 8.282-3.328 12.719l-1.5 4.438L723 757l-3 1-.5 4.563L719 767h-3c.28-4.952 2.115-9.481 3.75-14.125 2.938-8.608 5.188-17.282 7.27-26.133z"/><path fill="#d49b84" d="M853 229h3c-1.254 5.48-3.99 10.628-6.25 15.75-3.732 8.54-6.867 17.15-9.656 26.05L839 274h-1c-.187-3.5-.187-3.5 0-7h2c.045-3.333.039-6.667 0-10l.625-3.562L841 251l-2-1 2.938-.25L845 249l1-4h2l.5-5.5.5-5.5h2z"/><path fill="#cf8266" d="M586 492c2.314 6.942-3.412 15.277-6.402 21.594C578 516 578 516 574 517l1-5h2a227 227 0 0 0-1-9v-5h8v-5z"/><path fill="#d7a893" d="M826 329h1a189 189 0 0 1-.348 7.563l-.305 4.984L826 347l-.335 5.578c-.353 5.808-.726 11.615-1.102 17.422l-.185 3.04c-.179 2.924-.37 5.848-.562 8.772l-.33 5.208C823 391 823 391 821 393c-.36-27.29-.36-27.29 1.496-39.484.53-3.697.79-7.351 1.004-11.079.302-4.718.8-8.977 2.5-13.437"/><path fill="#daa995" d="M153 827c0 3.785-1.13 5.728-3 9l-4 4h-2c.625 4.375.625 4.375 2 9l4 2v2c4.393-.879 7.982-1.991 12-4 3.995-.548 7.972-.737 12-1-5.01 5.01-14.208 6.264-21.062 6.375C148 854 148 854 144 852c-2.261-4.522-2.787-6.039-2-11 3.114-5.165 6.74-9.74 11-14"/><path fill="#ce6d4d" d="m480 597 2 1v2h2v3h3c-1 4-1 4-3 7-5.077 1.015-7.312.97-12-1 1-4 1-4 4-9l4-1z"/><path fill="#d28e75" d="M652 562h2v2l4-1h3c-1.138 5.688-3.525 10.06-6.312 15.063l-1.475 2.72c-2.426 4.392-4.634 7.638-8.213 11.217v-5h2v-4h2v-4h2l.5-3 .5-3h2v-3l-2-1h2v-3h-2z"/><path fill="#d69a84" d="M672 835c1 2 1 2 0 6-.25 4.188-.25 4.188 1 8 5.563.938 5.563.938 11 1v1a490 490 0 0 0 11-1c-4.154 4.154-10.09 4.005-15.687 4.313C674 854 674 854 669 851c-1.677-3.354-1.271-6.315-1-10 1.938-3.625 1.938-3.625 4-6"/><path fill="#d09179" d="M436 829c2 4 2 4 2 8h2l.375 3.5.625 3.5h4c3 1 3 1 7 5 5.03 1.677 10.336 1.458 15.605 1.719L471 851v1c-4.637.927-8.724 1.234-13.437 1.313l-4.434.113c-5.913-.61-8.772-3.07-12.879-7.176-3.887-5.615-4.25-10.507-4.25-17.25"/><path fill="#daa793" d="M313 267c1.282 5.127.075 7.476-1.562 12.5-3.624 12.082-5.584 24.311-7.52 36.762l-.719 4.601-.63 4.166L302 328h-1a259 259 0 0 1-.25-9.937l-.078-5.59L301 308l3-1c.467-3.317.775-6.658 1-10 .26-3.34.573-6.677 1-10h2l-1-2-2 1c1.625-9.625 1.625-9.625 5-13h2c.625-3 .625-3 1-6"/><path fill="#daa28b" d="M295 628h1c.346 11-.648 21.647-1.937 32.563l-.553 4.884c-1.347 11.736-1.347 11.736-2.51 17.553h-1c.092-2.669.25-5.336.438-8l.308-4.5.254-3.5-.437 3-.563 3h-1c-.321-7.472-.127-13.435 2.137-20.613 1.684-6.61 2.339-13.425 3.215-20.18z"/><path fill="#ce6b48" d="m636 519 1 4 3 1-1 4-4 2 2 2h1v6h2c-1 4-1 4-3 6h-3c-2-2-2-2-2.082-6.21l.27-5.165.23-5.148C633 523 633 523 636 519"/><path fill="#d8a490" d="M415 476c1 4 1 4-1 9l-.437 4.313L413 493h-3c-.087 2.665-.08 5.335 0 8l-1 3c-.264 4.99-.445 9.976-.605 14.97A391 391 0 0 1 408 527h-1c-3.317-15.175-1.785-33.907 5.75-47.625z"/><path fill="#d69f89" d="m508 637 2 1c-2.701 4.214-4.157 5.063-9 7l-2.375 2.875c-2.893 3.444-5.747 4.93-9.625 7.125l-2 4-3 2-1 5c-3.875 1.688-3.875 1.688-8 3l-3 2c2.419-4.838 5.78-8.163 9.563-11.937l2.263-2.262c7.46-7.305 15.395-14.114 24.174-19.801"/><path fill="#d18c73" d="m791 762 1 2c-4.387 9.074-10.035 17.879-16 26h-1c-.25-3.937-.25-3.937 0-8l3-1v-2h2l1-4h2c-1-4-1-4-4-7l2-4h2l1 4 2.375-2.437C789 763 789 763 791 762"/><path fill="#dcaf9b" d="M437 738h1a195 195 0 0 1-.312 8.063c-.08 1.496-.158 2.993-.239 4.535a212 212 0 0 1-1.426 12.433c-1.165 8.45-1.65 16.893-2.086 25.407q-.23 4.436-.472 8.87l-.2 3.9L433 804h-1c-1.29-22.06-.326-44.5 5-66"/><path fill="#c17b61" d="M741 569h1c.177 4.57.286 9.127.352 13.7l.07 4.287q.072 4.53.136 9.058c.066 4.55.144 9.099.223 13.648.525 32.888.525 32.888-.781 46.307h-1c-2.544-18.083-.934-37.06-.628-55.29.067-4.022.126-8.046.185-12.07l.127-7.656.05-3.654c.05-2.778.152-5.554.266-8.33"/><path fill="#d8a590" d="M530.188 489.125 533 492l-2 1a358 358 0 0 1-8-4h-2v-2c-8.184-.733-16.069-.15-24 2h-2l-.812 2.875L493 495l-5 2c3.965-7.93 7.463-10.085 16-13 9.769-2.299 18.043-.953 26.188 5.125"/><path fill="#cf7a5c" d="M516 420c5.518 1.051 8.401 3.828 12 8l2 5c-8.239-.239-8.239-.239-10-2l-2 2v-3l-3-.5-3-.5v-3h2v-3l2-1z"/><path fill="#d38669" d="M650 445c7.25 7.25 8.452 14.269 8.727 24.156L659 472l2 1v6l-5 3c-1.286-4.04-.96-7.313-.437-11.5.635-6.54-1.216-10.654-3.688-16.687C650 449 650 449 650 445"/><path fill="#d1937b" d="M559 657h2l1 3c-2.529 1.675-5.071 3.332-7.668 4.898-7.338 4.629-14.2 9.97-20.332 16.102l-2-1 1-5h4v-4c3-1.687 3-1.687 6-3v-1h5l1-4h4l1-4h5z"/><path fill="#d6977f" d="m585 553 4 2 1 3h11c-10.112 7.584-25.525 11-38 11l4-1v-2c3.829-.629 7.662-.965 11.523-1.34L582 564l2-3h2v-4l-2-1z"/><path fill="#cf8164" d="m525 523 3 1v2l4-1 2 1 1-3c1 1 1 1 1 6-3.874 4.481-6.458 6.783-12 9 .25-3.5.25-3.5 1-8a126 126 0 0 0-1-6z"/><path fill="#d28568" d="M370 573c2.608 3.912 4 6.233 4 11q2.994 1.02 6 2l1 4 3-1c3.188.188 3.188.188 6 1v4h-2v5l-3-1-2-4-2.848-1.316c-4.098-2.19-5.351-4.59-7.59-8.621l-2.12-3.715C369 577 369 577 370 573"/><path fill="#d18d74" d="M867 201h2c.799 6.13-1.041 9.476-4.312 14.563-4.542 7.144-4.542 7.144-6.418 10.902-.42.836-.838 1.673-1.27 2.535h-1c-.187-4-.187-4 0-8h2l.5-3 .5-3h2v-6l2-1-3-1h3v-2l3-1z"/><path fill="#d9a28b" d="M583.5 172.188c4.973 3.996 8.04 7.91 10.5 13.812v5c-2-3-2-3-2-5l-4.562-1-4.438-1 1-2h4l-2-3h-3v-3l-4-2 1-2c-3.143-.124-6.292-.12-9.437-.062-3.188.053-6.375.083-9.563.062v-1c7.73-1.932 15.346-2.29 22.5 1.188"/><path fill="#e4bcaa" d="M624 461c9.87 9.87 10.193 35.586 10.875 49.063l.187 3.246c.227 5.973-.072 10.448-3.062 15.691h-1c.096-2.232.255-4.461.438-6.687 1.34-19.13-.944-36.302-6.45-54.75C624 464 624 464 624 461"/><path fill="#d58e74" d="m412 404 2 1-4 4a170 170 0 0 0-2 11l-1 4h-3l1-5-2-1v2a174 174 0 0 1-9 2c5.297-6.622 11.342-12.737 18-18"/><path fill="#d5977f" d="m581 596 2 1-3 1v3l-4 2c-1.25 3.625-1.25 3.625-2 7l-1-2h-5l-2 4c-4.044.56-7.903.174-12 0 3.552-2.664 6.71-4.41 10.688-6.312 4.41-2.157 8.535-4.379 12.562-7.188z"/><path fill="#cc8d77" d="M434 771h1c.164 2.715.253 5.434.316 8.152l.127 5.237.12 5.548.13 5.35c.588 25.315.588 25.315.307 32.713h-1c-1.821-9.587-2.278-18.76-2.187-28.5l.001-3.973c.037-8.222.371-16.343 1.186-24.527"/><path fill="#d7a18b" d="M393 544h1a491 491 0 0 1 2.625 9.5c2.37 8.488 5.228 16.371 8.957 24.348C407 581 407 581 408 585l-3-1v-2h-2l-.437-3.937L402 574l-3-1c-2.633-3.949-3.155-7.607-4.125-12.25l-1.07-5.016c-.689-4.05-1.06-7.643-.805-11.734"/><path fill="#d2957c" d="M548 367c-4.977 6.322-10.747 11.03-17 16l-3.562 3.063C525 388 525 388 523 388v-5l4 1v-3h3v-2h3l1-4h2v-2h3v-4c4-2 4-2 9-2"/><path fill="#cf856c" d="M473 559c5 2 5 2 7 3l1 4 3 .938 3 1.062 1 5-2 2c-6.013-1.804-8.445-3.012-11.562-8.562C473 562 473 562 473 559"/><path fill="#dca792" d="m551 445 5 1 1 4 4 4c1.16 3.793 1.16 3.793 2.063 8.188 1.045 4.87 2.138 9.4 3.75 14.125C568 480 568 480 567 484l-1.54-4.645C562 469.063 558.612 459.352 553 450z"/><path fill="#d59b86" d="M811 695h3c-.173 8.06-2.31 15.454-4.562 23.125l-.999 3.477Q807.23 725.803 806 730c-1-4-1-4 0-7 .13-2.29.23-4.582.313-6.875.465-7.621 1.96-13.989 4.687-21.125"/><path fill="#d29780" d="M639 598c0 7.254-10.64 14.633-15.574 19.582-2.114 1.98-2.114 1.98-5.426 4.418l-2-3h3v-4h2v-2l4-2 1-2h3l1-5 2-3h4v-2z"/><path fill="#ce7758" d="M636 584h2v2h3v2l4 1c.063 2.813.063 2.813-1 6-2.375 2.375-2.375 2.375-5 4h-3v2h-3v-4h6v-3h-3c-.312-5-.312-5 0-10"/><path fill="#be7357" d="M535 223c2 4 2 4 2.5 8.063C538 235 538 235 540 238c.113 2.869.095 5.743.012 8.613l-.143 5.221-.182 5.478-.146 5.444c-.452 15.312-.452 15.312-1.541 20.244h-1a169 169 0 0 1-.027-6.98l.037-4.471q.051-4.66.117-9.32c.066-9.02-.6-17.345-2.127-26.229-.207-4.368-.096-8.623 0-13"/><path fill="#d7a18c" d="M356 535c2 4 2 4 2 8h2c1.952 6.156 3 10.495 3 17l5 2c.707 3.04.707 3.04.813 6.625l.144 3.602L369 575c-7.708-10.277-13-27.096-13-40"/><path fill="#e2b8a7" d="M495 745h1c.04 2.04.01 4.081-.043 6.121-.286 15.824.27 30.689 3.266 46.242C500 802 500 802 499 805c-1.463-4.05-2.546-8.133-3.562-12.312C494 787 494 787 493 786c-.03-2.684.014-5.368.086-8.05l.133-4.995.156-5.268.133-5.232c.363-12.94.363-12.94 1.492-17.455"/><path fill="#d7a490" d="M201 727h1c.085 2.665.082 5.335 0 8l-1 1a171 171 0 0 0-1 5.938c-.892 5.846-.892 5.846-2 8.062l-.437 4.625L197 759h-2l-2 4-3 6c-1-2-1-2 .258-6.121l1.867-5.317c3.096-8.95 5.654-17.944 7.93-27.144z"/><path fill="#ddb19f" d="M300 328h1c-.21 11.093-1.535 22.203-2.527 33.246-.565 6.87-.93 13.739-1.227 20.625L297 385h-1c-.103-2.612-.13-5.226-.133-7.84l-.004-4.908.012-5.19-.012-5.177.004-4.912.004-4.555C296 349 296 349 297 348q.35-4.416.684-8.832c.385-3.857 1.177-7.465 2.316-11.168"/><path fill="#dfb5a2" d="M611 477c7.374 7.374 7.001 26.153 7.125 36.125-.1 4.734-.318 9.214-1.125 13.875h-1c-.276-5.371-.449-10.738-.605-16.113A487 487 0 0 0 615 502h-1a267 267 0 0 1-1-8.562c-.57-5.499-1.178-10.971-2-16.438"/><path fill="#d9ab98" d="M289 683h1c-.402 9.08-2.083 17.413-4.375 26.188l-.922 3.654c-1.655 6.476-3.396 12.877-5.703 19.158h-1c-.187-3.5-.187-3.5 0-7h2v-7h2q.567-5.494 1-11l1-1 .5-4.562.5-4.438h1l.438-5 .562-5h2z"/><path fill="#d28e74" d="M419 605c6.21 1.242 8.037 3.532 12.438 8l3.87 3.875L438 620l-2 1-3-1v-2a783 783 0 0 0-9-2c-2-2-2-2-2.5-5.625L421 607h-2z"/><path fill="#c87455" d="M513 578h6l1 2c2.577.247 5.166.358 7.754.414l4.775.117 5.034.094 5.044.117q6.196.142 12.393.258c-4.812 3.208-10.372 2.521-16 2.688l-3.64.142c-8.952.306-8.952.306-12.36-.83l-1 3-1-3a252 252 0 0 0-7-3z"/><path fill="#c77354" d="M825 322h2c.012 2.809.012 2.809-.312 6.438l-.301 3.62C826 335 826 335 825 336c-.38 3.516-.703 7.038-1 10.563-1.214 14.272-1.214 14.272-2 19.437h-1c-.263-4.827-.185-9.667-.187-14.5l-.038-4.191-.005-3.965-.013-3.682L821 337h2c.712-3.797 1.058-7.593 1.438-11.437z"/><path fill="#d69c86" d="m537 182 2 1c-4.2 5.6-4.2 5.6-7 7-1.236 6.18-1.236 10.82 0 17-2 4-2 4-4 5-.928-3.71-1.166-6.64-1.187-10.437l-.043-3.372c.398-5.52 2.645-9.184 6.23-13.191z"/><path fill="#d1886e" d="M533 627c-5.62 6.28-9.636 8.313-18 9l-5 1c5.281-5.281 14.905-14.047 23-10"/><path fill="#d1896f" d="m745 812 4 1v2l3 1c-1.754 1.96-1.754 1.96-4.562 4.375l-2.754 2.398c-2.177 1.806-4.421 3.53-6.684 5.227l-2-1c.188-3 .188-3 1-6l3-1 1-2h5v-2l-2-1z"/><path fill="#c97153" d="M435 799c2 3 2 3 2 8l1-3 2-2c0 6 0 6-1 11l1 4-1 1a323 323 0 0 0-.062 9.563l.027 5.316L439 837c-5.594-11.187-4.157-25.72-4-38"/><path fill="#d49279" d="M560 589v2q5.511-.375 11-1c-1.73 3.458-5.442 4.397-8.812 6.063l-4.333 2.16C554 600 554 600 550 601v-4h3l1-2h2l-1-4c3-2 3-2 5-2"/><path fill="#d29983" d="M183 781c1.353 5.413-.16 8.822-2 14h-2l-1 4-2 3h-2l-2 5-4 2c1.804-4.511 3.84-8.19 6.375-12.312 3.12-5.134 6.07-10.244 8.625-15.688"/><path fill="#c3795f" d="M217 329h1c1.17 27.49 1.17 27.49-2 37-.314 4.72-.511 9.442-.719 14.168L215 384h-1c-.803-18.444.463-36.727 3-55"/><path fill="#e5bcab" d="M599 223h1c.629 17.814.329 35.442-3 53h-1a193 193 0 0 1-.187-8.312l-.043-4.676c.23-5.012.23-5.012 1.207-10.324 1.112-6.185 1.428-12.11 1.586-18.375.104-3.777.246-7.54.437-11.313"/><path fill="#d1866b" d="m284 184 1 3h-3l-1 5c-3.562 2.813-3.562 2.813-7 5v-2l-3 1-1-3c3.306-4.029 8.493-9 14-9"/><path fill="#c37154" d="M356 497h1c.276 4.727.449 9.448.605 14.18.099 2.608.243 5.214.395 7.82h1a462 462 0 0 1 .063 12l-.014 3.469q-.02 4.266-.049 8.531c-2.906-5.811-3.128-10.285-3.133-16.703l-.004-5.156.012-5.391-.012-5.437.004-5.141.004-4.747z"/><path fill="#d7a38f" d="M450 703c1.186 4.745.46 7.391-1 12h-2c-.562 2.625-.562 2.625-1 6s-.437 3.375-1 6h-2l-.375 2.75C442 733 442 733 438 737c1.245-7.224 3.213-13.601 6-20.375l2.125-5.21A150 150 0 0 1 450 703"/><path fill="#d49882" d="m406 463 2 3c-1.636 4.09-3.421 7.847-5.437 11.75-2.693 5.318-4.793 10.547-6.563 16.25h-1c-.187-5-.187-5 0-10h2v-3h2l-.562-3-.438-3h3v-2h2v-6h2z"/><path fill="#d5967e" d="M612 438c3.375 1.5 3.375 1.5 7 4 1.188 3.125 1.188 3.125 2 6l4 2c.517 4.649.12 6.76-2 11l-1.645-3.578c-.715-1.542-1.43-3.084-2.168-4.672l-2.144-4.64C615 444 615 444 612 440z"/><path fill="#d49982" d="m342 203 3 1c-1.747 3.599-3.582 6.947-5.625 10.375-.56.972-1.121 1.944-1.7 2.945-2.305 3.947-4.43 7.435-7.675 10.68 1.875-10.75 1.875-10.75 3-13h2l.5-3 .5-3h2l1-4h2z"/><path fill="#d4967d" d="M401 616c3 .313 3 .313 6 1v2l3.875.375L415 620c2 4 2 4 3 7l3 1 1 3c-8.047-3.219-14.627-8.17-21-14z"/><path fill="#d59b85" d="m816 662 3 1c.625 10.565-1.496 21.765-4 32h-1c-.525-10.608-.016-21.435 1-32z"/><path fill="#d49d88" d="M614 533c1.224 4.897.312 7.217-1.187 12l-1.293 4.25C610 553 610 553 606 557l-5 1 1-3 2-1-1-4 3 2c2.044-3.067 2.897-5.497 4-9 2.885-8.885 2.885-8.885 4-10"/><path fill="#d69f8a" d="m817 180 2 1c-5 3-5 3-7 3v3c-3.664 2.542-6.37 3.917-10.812 4.5L798 192l-2 4-4-1c7.548-6.47 15.811-11.176 25-15"/><path fill="#cf8266" d="m725 827 1 4h2v-2h3v-2l5 1c-3.247 3.433-5.86 5.516-10 8h-3v-2h-3v2l-4-1h2l2-4 4-2z"/><path fill="#daa28b" d="M429 577c3 1.25 3 1.25 6 3v2l4.438-1 4.562-1 1 2h-5c.375 3.375.375 3.375 2 7l5 2c3 5 3 5 4 7-4.278-2.139-6.957-4.549-10.437-7.812l-3.372-3.145L434 584l-2.91-2.762C429 579 429 579 429 577"/><path fill="#d8a996" d="M604 465c3 1 3 1 5.25 4.875C611 474 611 474 610 477l-5-2c-1.187 4.875-1.187 4.875-2 10h-2l-1 5c-1.609-4.826.154-9.416 1.25-14.25l.66-3.164c.574-2.56 1.317-5.08 2.09-7.586"/><path fill="#dba690" d="M569 541c0 3 0 3-1.863 5.086l-2.45 2.289c-4.347 4.075-7.204 7.694-8.687 13.625-4.375.25-4.375.25-9 0h-3l2.125-1.504C554.371 554.592 561.907 548.27 569 541"/><path fill="#daab98" d="M834 287c1.377 4.13.289 6.652-.75 10.875-2.105 9.003-3.453 17.999-4.637 27.164L828 329h-1c-.667-9.92-.047-20.27 2-30h2q.521-4.498 1-9z"/><path fill="#d2937a" d="m590 290 3 1c-1.018 7.638-3.884 14.976-7 22h-1c-.209-2.62-.315-5.248-.375-7.875l-.148-4.43L585 297l5-2z"/><path fill="#d89c85" d="M471 577c3.668 3.668 6.168 7.74 8.965 12.09C482 592 482 592 486 596l-1 2a473 473 0 0 1-6-5l-5-2-1-4-3 3 .5-4.25c.5-4.75.5-4.75.5-8.75"/><path fill="#da937a" d="m842 174-3.5.75L835 176v4l3 1v3h-2v-2l-2.687.5C830 183 830 183 825 181l2-2-4 1-4-1q4.62-1.547 9.25-3.062l5.203-1.723C838 173 838 173 842 174"/><path fill="#d7a48f" d="M316 174c-6.456 4.75-11.12 5.38-19 6a379 379 0 0 0-9 4l-4-1c24.082-10.98 24.082-10.98 32-9"/><path fill="#dca58e" d="M484 843h2l1 3c-2.507 3.76-4.042 3.897-8.312 5.125l-3.426 1.008c-5.307 1.41-10.107 2.003-15.574 1.992l-3.801.008L453 854v-1c4.453-.518 8.914-.906 13.379-1.305 4.416-.664 7.708-1.566 11.621-3.695l1-3h5z"/><path fill="#d59c85" d="M195 835h5c-4.31 3.796-9.009 6.238-14.125 8.813l-4.82 2.457C177 848 177 848 174 847l2-1 1-3c3-2 3-2 6.688-1.937L187 841v-3c2-1 2-1 8-1z"/><path fill="#dcb3a1" d="M544 563c-2 4-2 4-3 5l4.813.184 6.187.254 3.18.119c2.608.11 5.215.272 7.82.443v1c-9.495 1.473-20.563 2.247-30 0v-2c8.333-5 8.333-5 11-5"/><path fill="#deb1a0" d="m508 444 1 3c-2.741.157-2.741.157-6.734-.145l-4.371-.302-4.645-.365a4256 4256 0 0 0-8.922-.645l-4.31-.311a157 157 0 0 0-10.596-.244L465 445v-1c13.107-2.964 29.791-2.007 43 0"/><path fill="#d2896e" d="m431 508 2 1v4h-2l.125 2.813c-.17 5.717-1.969 9.894-4.125 15.187h-1c-.687-4-.687-4-1-8h2v-5l-2-1 2-5 2 1z"/><path fill="#d2947c" d="M462 469c3.563-.25 3.563-.25 7 0l-2.14 2.137a1495 1495 0 0 0-5.72 5.758l-2.89 2.918-2.922 2.957C453 485 453 485 452 485c-.25-3.375-.25-3.375 0-7 3-2 3-2 5-2l1-3h3z"/><path fill="#d0866b" d="M416 448h2c1.125 2.438 1.125 2.438 1 6-1.825 2.537-3.838 4.713-6.02 6.95C411 463 411 463 409 466h-2c-.75-2.937-.75-2.937-1-6l2-1 2 1v-2l-2-1 4 1v-5h3l-1-3h2z"/><path fill="#cf8469" d="M576 648c-2.722 6.805-5.616 7.648-12 11l-2-1-1-3h2v-5h6c4-2 4-2 7-2"/><path fill="#d5977f" d="M633 426c4.038 0 5.056 1.28 8 4a131 131 0 0 1 4.813 6.625l2.394 3.477C650 443 650 443 650 445c-4-2-4-2-5-4h-4c-.625-2.687-.625-2.687-1-6l-2-5-5-1z"/><path fill="#d19178" d="M495 419v2h-2l-1 3c-10.467 5.862-10.467 5.862-16 6l-2-2c3.383-2.164 3.383-2.164 8.125-4.625l4.695-2.477C491 419 491 419 495 419"/><path fill="#e0b5a1" d="M587 438c4.36 3.537 7.072 6.12 10 11 .145 4.285.145 4.285-.187 9.063l-.293 4.785C596 467 596 467 594 471l.36-4.848.39-6.214.246-3.206c.176-3.017.176-3.017.004-7.732l-4 1c-1.687-4.25-1.687-4.25-3-9z"/><path fill="#d49c85" d="m472 429 2 1c-2.278 4.557-3.415 5.166-8 7h-4v2c-2.625.852-2.625.852-6 1.625-1.114.26-2.228.52-3.375.79L450 442c3.787-3.787 7.826-5.751 12.563-8.25l5.19-2.766z"/><path fill="#d4947c" d="M598 396c4.605 1.842 8.182 3.923 12.313 6.625l3.8 2.477L617 407l-2 1c-10.56-3.56-10.56-3.56-12-5l-1 3h-2c-.395-2.324-.722-4.66-1-7z"/><path fill="#d18468" d="m834 258 3 2 3-1c.313 3.938.313 3.938 0 8h-2v5c0 5.194-.427 9.097-2 14h-1v-11l-1-5 1.625-3.75L837 263l-3-1z"/><path fill="#d7a591" d="M715 767c1.053 4.212.89 6.795 0 11h-2l-.937 4.5L711 787h-3a169 169 0 0 0-2 6h-2c1.24-4.774 3.386-9.123 5.5-13.562 1.96-4.124 3.803-8.196 5.5-12.438"/></svg>