<svg xmlns="http://www.w3.org/2000/svg" width="926" height="921"><path fill="#ce6d4d" d="m352 89-2.562 2.125C342.99 96.516 336.886 102.009 331 108l-2.562 2c-2.75 2.256-5.005 4.792-7.305 7.496a356 356 0 0 1-4.828 5.54c-61.352 69.761-70.49 158.91-70.684 247.956q-.023 6.137-.051 12.273-.061 14.421-.103 28.842-.077 25.698-.185 51.396-.04 10.371-.068 20.743c-.723 219.376-.723 219.376-79.589 300.442-6.457 6.349-13.377 11.897-20.625 17.312l-2.695 2.074C120.735 820.334 83.937 844 56 844v-2a641 641 0 0 1 8-6c4.38-3.613 8.69-7.305 13-11l4-3.375c9.449-8.563 18.202-17.534 26-27.625l2.691-3.363c52.372-67.156 58.558-150.475 58.648-232.488.008-5.296.03-10.592.05-15.888.047-13.42.08-26.84.111-40.261a33102 33102 0 0 1 .169-56.145c.425-106.552 1.962-221.26 81.456-302.23C255.821 138.03 261.653 132.84 268 128l3.488-2.676c19.842-14.896 41.695-26.51 65.325-34.136l3.216-1.042C347.47 87.868 347.47 87.868 352 89m532 0-2.648 2.21C867.125 103.29 853.349 116.129 842 131l-2.332 2.887C797.598 186.69 782.569 252.925 779 319l-.249 4.24c-.943 18.328-.933 36.657-.98 55.005q-.026 9.185-.066 18.371-.1 24.472-.172 48.943C776.788 695.166 776.788 695.166 713 768l-2.027 2.36C679.4 806.34 636.776 832.895 590 844l-3-1 2.605-2.02C607.663 826.9 624.967 812.24 639 794l2.34-2.895c47.715-59.927 57.807-134.938 59.215-209.085l.065-3.352c.57-30.221.455-60.443.38-90.668-.234-94.994-.234-94.994 2.313-132.25l.395-5.906C707.27 299.28 715.592 247.107 740 202l2.3-4.379c12.685-23.608 29.874-46.525 50.7-63.621l3.156-2.664C814.286 116.344 858.736 82.684 884 89M500 418c30.857-1.365 62.882 14.395 85.313 34.5 14.263 13.527 32.018 33.247 34.101 53.531-1.785 17.112-12.78 33.748-20.557 48.662-8.572 16.5-16.292 33.327-23.857 50.307q-1.282 2.856-2.566 5.71l-4.235 9.415C554.714 650.017 540.462 679.797 522 707l-3.207 4.73C511.352 722.586 503.435 732.89 495 743q-2.408 3-4.812 6c-3.791 4.646-7.912 8.8-12.188 13l-1 2h-2l-2 4a297 297 0 0 1-8 7q-2.317 2.12-4.625 4.25c-16.18 14.533-34.2 26.54-53.375 36.75l-3.816 2.05C370.285 835.148 333.108 844.837 296 844c3.45-3.45 8.508-4.328 13.063-5.875C336.798 828.39 362.115 814.51 385 796l3.383-2.703C401.12 782.843 413.05 771.157 423 758l2.633-3.445c23.808-31.767 42.016-69.666 46.84-109.453C473 642 473 642 475 640l5.625-1.187c12.864-2.846 24.261-8.408 34.375-16.813l2.613-2.156C540.11 600.454 552.192 570.12 555 541c1.772-39.22-7.393-74.012-33.875-103.812C514.759 430.45 507.686 425.124 500 420zM646 88c-1.816 3.633-6.483 4.132-10.125 5.438C590.505 110.273 549.032 138.967 520 178l-2.355 3.012C504.209 198.332 493.427 218.402 486 239l-1.52 4.156c-4.876 13.926-8.746 28.332-10.293 43.031C473 291 473 291 469.813 292.938L465 294c-25.204 7.248-44.207 21.001-57 44-18.605 35.763-21.98 74.393-9.926 112.832C403.223 464.648 410.41 477.764 420 489l2.582 3.07C429.54 500.014 437.24 506.16 446 512v2c-32.148 1.055-63.76-14.927-87-36l-2.652-2.398c-11.565-11-19.93-24.054-26.348-38.602l-1.781-3.848c-4.29-14.613 5.824-30.766 12.637-43.36q1.795-3.277 3.595-6.555c10.56-19.284 19.6-39.208 28.361-59.362C384.54 296.922 396.83 270.214 412 245l1.804-3.001c13.92-23.007 29.39-44.707 47.774-64.394 2.064-2.22 4.063-4.5 6.047-6.792 6.321-7.141 13.09-13.656 20.375-19.813l3.215-2.762C529.092 116.46 574.777 95.11 624 89l5.438-.687c5.566-.382 10.983-.51 16.562-.313"/><path fill="#ce6c4d" d="M583.95 361.102c15.61 14.832 25.642 34.96 33.05 54.898l1.176 3.11c6.621 19.327 9.997 43.735 5.824 63.89-3.03-3.03-4.934-5.93-7.188-9.562C612.89 467.27 608.744 461.554 604 456l-2.043-2.45c-22.906-26.577-55.975-41.41-90.207-46.3-23.528-1.238-45.408 2.474-66.75 12.75 9.553-23.881 35-42.053 57.555-52.184 19.95-8.151 61.573-20.839 81.394-6.714"/><path fill="#ce6c4c" d="M528 467c13.752 13.752 16.273 41.662 16.375 60-.226 29.58-9.843 56.881-28.375 80l-2.312 3.563c-4.25 3.853-9.202 4.506-14.688 5.437l-3.602.621c-38.692 5.713-78.115-3.398-110.336-25.558L381 588v-1a131 131 0 0 1 6.043-.36C426.587 584.777 460.756 573.6 490 546l2.27-2.074C513.847 523.482 523.827 495.719 528 467m36-123v1c-2.915.167-5.832.28-8.75.375C514.034 347.32 477.252 362.433 449 393c-15.872 18.725-27.905 42.193-29.625 67l-.375 5h-2c-15.507-23.78-18.206-56.7-13-84 4.718-21.479 13.36-39.796 27-57l1.723-2.7c3.294-3.327 6.416-3.653 10.964-4.55 1.53-.315 3.06-.63 4.637-.953C488.19 309.003 532.241 318.26 564 344"/><path fill="#ce6d4e" d="M322 449c3.122 3.122 4.78 5.974 6.938 9.813C333.8 467.029 339.553 473.985 346 481l2.133 2.418c23.123 24.892 58.991 39.807 92.57 41.871 20.63.375 39.538-3.88 58.297-12.289l2 1c-4.905 8.783-11.045 15.784-18 23l-3.25 3.563C451.276 566.663 415.845 576.5 378 575c-9.511-.636-14.926-2.445-21.352-9.629C330.984 532.254 319.715 495.541 321 454z"/><path fill="#cc7557" d="M646 88c-1.816 3.633-6.483 4.132-10.125 5.438-15.891 5.868-31.471 12.856-45.645 22.199C588 117 588 117 586 117v-5l4-1q.579-3.489 1-7l3-3 1-2c-5.75.75-5.75.75-8 3a225 225 0 0 1-11-1c4.558-3.039 9.759-4.035 15-5.437l3.533-.948C604.274 92.067 614.004 90.24 624 89l5.438-.687c5.566-.382 10.983-.51 16.562-.313"/><path fill="#ca7355" d="M528 467c13.755 13.755 16.267 41.66 16.375 60-.057 12.692-1.54 24.855-5.375 37h-1l-.437-4.875C537 554 537 554 535 552l-1-2h3l1-2 2 1v-6h1c.293-5.139.232-10.291.25-15.437l.063-4.456.015-4.228.028-3.92L541 512l-3-1v-2l-2-1v-2h2v-2h2c-.562-3.125-.562-3.125-2-6-5 2-5 2-7 6-4 2-4 2-7.75 1.438L520 505v3h-2c.936-3.02 1.951-6.017 3-9 3.046-10.594 5.585-21.064 7-32"/><path fill="#cb775b" d="m623 812 1 3-1 2 2.938.375L629 818v4h3v2q4.5.124 9 0c-4.637 3.478-9.5 5.544-14.812 7.75l-3.189 1.325C593.38 845.127 593.38 845.127 587 843l2.605-2.02c21.122-16.468 21.122-16.468 29.645-25.355zm6 5 2 1Z"/><path fill="#c97d63" d="m208 719 3 2c-9.98 31.178-40.503 61.952-66 81l-2.695 2.074C128.625 814.386 113.148 824.092 97 830v-3h4v-2l4-3 2 1v-2h6v-2h4v-3l2.875-.437L123 815l2-4h5v-4h2l1-2h3v-2h4v-2h4v-3h2l1-3h3l1-4h3v-2l3-2 2-5 5 1-3-4 4-2v2l4-3 2 1v-4h3v-2l-2-1h3c1.124-2.72 2-5.037 2-8h4l1-3h2v-2h2l1-4h2l2-5 2-3h3v-3h2v-7h2v-2l4-1q.567-5.494 1-11z"/><path fill="#cb7455" d="m352 89-2.562 2.125C342.99 96.516 336.886 102.009 331 108l-2.562 2c-4.728 3.879-8.444 8.79-12.313 13.5L314 126h-1v-5h2v-5h2l2-5 3-1 1-2-2.875 1.25L317 110l-2-4-1-1-3.812 1C306 107 306 107 302 106c11.28-5.788 22.488-10.804 34.563-14.687l3.259-1.063c7.662-2.38 7.662-2.38 12.178-1.25"/><path fill="#c97d62" d="m743 713 2 3c-4.407 18.823-19.482 37.707-32 52l-2.027 2.36C692.009 791.97 692.009 791.97 681 799l-1-4 2-2h4l1-5c4-3 4-3 7-3v-5c4-2 4-2 8-2l-1-4c4-3 4-3 6-3l2-4h2l.375-3 .625-3h4l1-4 2-3h3v-5l3-3 1-3h2v-2h2l1-5h3v-4h2v-4h2v-3h2v-6h1a169 169 0 0 0 2-6"/><path fill="#cb7457" d="M133 755h1c-.37 8.37-.37 8.37-5 13 1 3 1 3 3 5h-2l-.937 4.5L128 782h-3q.448 3.508 1 7l-2 1v-2c-3 1.188-3 1.188-6 3v3c-3.187.625-3.187.625-7 1l-5 1c3.207-4.934 6.503-9.675 10.125-14.312 4.88-6.405 8.927-13.24 12.977-20.185A436 436 0 0 1 133 755"/><path fill="#ca7c60" d="m332 829 2 1-5 2-1 3c4.81 2.405 7.9 2.201 13.25 2.125l4.953-.055L350 837c-4.906 2.453-9.772 3.171-15.125 4.063l-3.016.525c-9.359 1.594-18.49 2.55-27.984 2.475l-4.508-.028L296 844c3.668-3.668 9.224-4.693 14.063-6.375 6.148-2.146 12.185-4.284 18.12-6.977z"/><path fill="#cc6c4d" d="M554 549h1a226 226 0 0 1-.375 8.438l-.273 4.746C554 566 554 566 553 567l.063 4.438C553 576 553 576 551 578l-.937 3.5C549 585 549 585 546 587h1c-.312 4.5-.312 4.5-1 9h-2l-1 4-5 2c-2 3-2 3-4.75 8.063C530 615 530 615 526.813 616.438L524 617l-3 3-2-1 3.75-3.625c17.11-16.663 26.279-40.776 30.672-63.84z"/><path fill="#cb7558" d="M602 472c7.605 8.775 16.087 22.11 17.438 33.781-.568 5.473-2.298 9.98-4.313 15.094l-1.105 2.875c-2.725 6.955-2.725 6.955-5.02 9.25-1-5-1-5 0-7l-1-4 3-4-2-4v-5h6c-.562-3.25-.562-3.25-2-7l-1-4h2v-2l-4 1a162 162 0 0 1 0-9h-2c-2-4-2-4-2.375-7.187L605 478l-4-1z"/><path fill="#cb7254" d="M536 328c9.342.519 20.879 10.229 28 16v1c-2.915.167-5.832.28-8.75.375-11.94.526-23.566 2.27-35.324 4.344L517 350v-2a285 285 0 0 1 9-2l1-1c4.344-.527 8.625-.988 13-1.125l3-.875c1.125-3.5 1.125-3.5 1-7-3-1-3-1-7 0-1.125-4.062-1.125-4.062-1-8"/><path fill="#cb7559" d="m444 319-1 4-6 2c-1.165 4.66-2 9.188-2 14v1h-6l-2-3c-5.747 2.873-6.835 8.327-9 14h-2v3h-2l-1 4c-1-3-1-3 .3-6.3 18.244-36.38 18.244-36.38 30.7-32.7"/><path fill="#cb775a" d="m499 513 2 1c-4.667 8.357-10.434 17-18 23l-3-3c.313-3.062.313-3.062 1-6v-2h-5c2-5 2-5 5.773-6.73l4.602-1.457c4.41-1.424 8.478-2.74 12.625-4.813"/><path fill="#cf6e4e" d="M530 584c-1.691 6.919-5.958 12.269-10 18l-2.012 2.918C516.125 607.5 516.125 607.5 513 611l-2-4 3-3-3-1-2-1c0-4 0-4 2-6l-.125-3.5.125-3.5 4-2 3 1v2l5-1 3 1v-5c2-1 2-1 4-1"/><path fill="#cd795d" d="m408 432 3 1-1 3 1 3 4-1c2 4 2 4 2 7l4-1c.023 4.496.023 4.496-.625 10.438l-.602 5.933L419 465h-2c-4.99-8.198-12.35-20.58-10.277-30.437z"/><path fill="#c97458" d="M322 449c3.27 3.27 5.305 6.541 7.688 10.5l2.449 4.031C334 467 334 467 334 470l-2.937-.5L328 469l-1 3h-2c-.696 5.982-1 11.726-1 17.75V494h-1c-2.063-9.26-2.187-18.685-2.187-28.125l-.003-3.304c.033-4.697.266-8.952 1.19-13.571"/><path fill="#c8826a" d="M443 611v2c2.333.043 4.667.04 7 0l2 1c3.603.125 7.208.176 10.813.188l5.957.042C474 614 474 614 479 612v2l2.688-.937C485 612 485 612 490 613c3.703.293 7.405.505 11.113.719L504 614v1c-23.525 4.6-48.872 5.038-72-2v-2c8.37-1.315 8.37-1.315 11 0"/><path fill="#c97c61" d="M861 108c-2.048 4.095-4.49 6.514-7.73 9.68-4.082 4.172-7.654 8.745-11.27 13.32l-2.406 2.996c-6 7.605-11.283 15.545-16.442 23.742L821 161h-1c-.812-3.875-.812-3.875-1-8l4-2 2-4h2l1-4h3v-4h3v-4h3l-.062-3.25C837 128 837 128 841 124l3-1 1-2h3v-5l4-3 2 1 1-5c2-1 2-1 6-1"/><path fill="#ca7255" d="M381 587a260 260 0 0 1 9.125-.125l5.133-.008c8.151.228 8.151.228 10.742 1.133.188 5.5.188 5.5-1 11-5.65 1.13-6.236.755-10.875-2.125l-3.164-1.953c-3.404-2.21-6.75-4.44-9.961-6.922z"/><path fill="#cb7658" d="M353 819v2h-3v2h-2v2h-4l1 4-3 3 1 3c5.99.52 12.034-.41 18-1-5.629 3.753-11.941 3.418-18.5 3.75l-3.168.207c-7.866.393-7.866.393-12.332-2.957 5.241-5.241 10.128-8.78 16.688-12.25l4.011-2.14C351 819 351 819 353 819"/><path fill="#c97c61" d="M457 401c2 3 2 3 2 8 6.3-.078 12.035-.88 18-3v-1c2.502.066 5.003.204 7.5.375l4.219.273L492 406v1c-2.954.429-5.914.816-8.875 1.188-13.402 1.937-25.932 5.941-38.125 11.812 1.718-4.294 3.28-6.996 6-10.625 2.06-2.765 4.087-5.505 6-8.375"/><path fill="#c98269" d="M539 493c9.981 19.963 6.48 50.48 0 71h-1l-.437-4.875C537 554 537 554 535 552l-1-2h3l1-2 2 1v-6h1c.293-5.139.232-10.291.25-15.437l.063-4.456.015-4.228.028-3.92L541 512l-3-1v-2l-2-1v-2h2v-2h2l-1-3c-.04-2.666-.044-5.334 0-8"/><path fill="#c87d63" d="M516 350c-3.31 2.207-6.367 3.251-10.125 4.563-18.012 6.69-33.646 16.603-47.875 29.437h-1v-5c3-2 3-2 6-2v-3h2l2-5c4.125-.187 4.125-.187 8 0v-2h2l1-4h4v-2h5l1-4 1 2h3v-3q3.993-.562 8-1v-2c4.921-3.28 10.2-3 16-3"/><path fill="#ca8168" d="M789 235c1.564 4.691-.094 8.53-1.187 13.313-2.153 9.784-3.766 19.566-5.063 29.5l-.493 3.768c-.71 5.597-1.34 11.183-1.804 16.806L780 303h-1c-.033-3.877.07-7.745.16-11.621L779 288l-2-1c0-6 0-6 2-9 .242-2.055.401-4.12.5-6.187L780 266h2v-6l1-1c.29-3.98.45-7.962.621-11.95.35-3.735.866-6.629 2.379-10.05z"/><path fill="#cb775a" d="m820 114 2 1-3 4h-3v2h-2a201 201 0 0 0 3 6v2h-2l-.937 3.063L813 135l-3-1v-2q-2.997-.52-6-1l-2-2v2h-3v2c-5.294 4-5.294 4-9 4 7.532-7.003 15.612-13.057 24-19l3.332-2.39z"/><path fill="#c98169" d="M500 418c10.022-.299 20.327 1.476 30 4v1c-4.203-.135-8.399-.33-12.598-.55L514 423c-.246 2.895-.246 2.895 1 6l4 2a554 554 0 0 1 7 7l2 1v5a477 477 0 0 1-8.562-8.75c-5.834-5.855-12.574-10.674-19.438-15.25z"/><path fill="#ca8066" d="m574 598 3 1c-1.63 6.15-4.168 11.78-6.906 17.508l-2.254 4.738-2.34 4.879q-2.298 4.815-4.594 9.633l-2.052 4.285a135 135 0 0 0-3.473 8.097L554 651l-2-2v-6h2c1-3 1-3 2-8l4-1v-4h2l-.125-3.437L562 623l4-1-.062-4.25c.062-4.75.062-4.75 2.5-7.375L571 608c.688-3.625.688-3.625 1-7z"/><path fill="#c88771" d="M615 413c11.323 16.985 12.25 48.067 9.48 67.68L624 483c-3-3-3-3-5-8h2v2h2c.075-3.07.075-3.07-.172-7.34l-.265-4.662-.313-4.935-.266-4.83c-1.226-20.475-1.226-20.475-3.984-23.233l-.437-3.312C617 425 617 425 615 421a128 128 0 0 1 0-8"/><path fill="#c97e64" d="m421 760 1 3-2 4h-2v2l-3 2-2 5-2 1-2 5-4 2-2.5 2.625C400 789 400 789 396 789v2h-2l-1 4h-4v2c-3 1.125-3 1.125-6 2 3.935-3.995 8.008-7.817 12.125-11.625 9.298-8.672 18.312-17.123 25.875-27.375"/><path fill="#cd785a" d="m361 466 2 1v2c3 1.125 3 1.125 6 2l-3 2a168 168 0 0 0 2 6l-1 5c-4.928-2.413-8.646-6.347-12.5-10.187l-3.281-3.231L349 468c2-1 2-1 7 0l2 2c2-2 2-2 3-4"/><path fill="#ca7a5f" d="M494 373v2h-3a221 221 0 0 0-2 7h-2l-1-2-2 5-3 1-1 4h-5a283 283 0 0 0-7 5c-3.437 1.313-3.437 1.313-6 2 5.826-7.71 21.423-24 32-24"/><path fill="#ca8269" d="m352 89-2.562 2.125c-10.403 8.7-10.403 8.7-15.125 13.563L331 108h-2l-1-3h4l-1-5 4 1c.25-3 .25-3-1-6-4.062.125-4.062.125-8 1 3.938-2.625 7.931-3.743 12.438-5.187l5.12-1.668C348 88 348 88 352 89"/><path fill="#ca7c62" d="M674 736c1 4 1 4-.5 8.875-1.401 4.787-1.377 6.487-.5 11.125l-4-1-1 5-4 4h-2l-2 5 2 1c-2 3-2 3-6 5l-3 3c0-4.11 1.69-6.023 3.875-9.5 6.38-10.415 12.582-21.144 17.125-32.5"/><path fill="#ce8a73" d="M646 88c-1.814 3.627-6.2 4.273-9.812 5.688l-4.895 1.949C627 97 627 97 623 96l1-3c-3.892-1.086-6.027-.993-10 0-2.999.079-6.001.088-9 0v-1c13.57-2.564 27.174-4.488 41-4"/><path fill="#cb8a75" d="M775 539h1c.135 3.676.19 7.323.188 11l-.003 3.492c-.14 20.71-1.042 42.013-4.185 62.508h-1c-.084-6.226.1-12.452.242-18.677.07-3.15.124-6.298.178-9.448l.13-6.055c.039-1.833.076-3.665.115-5.554.334-5.254 1.242-10.123 2.335-15.266q.379-5.807.563-11.625c.111-3.46.246-6.919.437-10.375"/><path fill="#cc795d" d="M231 653h2c-.395 6.204-1.942 12.018-3.562 18l-1.38 5.125L227 680c-4-4-4-4-4.496-7.164l.059-3.461.003-3.477L223 663l3-2 1-2h2l1-3z"/><path fill="#cc8067" d="M568 357c-2.375 2.563-2.375 2.563-5 5l-2-1c-4.49-.12-8.801-.196-13.242.531-4.484.56-8.687.365-13.196.094l-4.87-.273L526 361v-1c14.033-3.16 27.713-3.345 42-3"/><path fill="#cb7a5e" d="m381 799 2 1-2 3h-2v2h-2v4l2 1-4 4v-2l-2.437 1.938c-4.31 2.494-7.618 2.917-12.563 3.062l-2-2c2.536-1.68 5.086-3.34 7.691-4.91 4.529-2.86 8.677-6.146 12.875-9.465z"/><path fill="#cb8269" d="M430 501c3.747 2.248 7.27 4.525 10.813 7.063l2.957 2.097L446 512v2c-8.717.155-17.455-1.437-26-3 4-2 4-2 9-4l1 1 2-5h-2z"/><path fill="#ca7f66" d="M262 211h2c-.4 6.757-2.63 13.323-4.437 19.813-1.757 6.32-3.44 12.574-4.723 19.011L254 254h-1c-1.35-8.44-.927-15.89 2-24h2l-.5-2.812C256 224 256 224 258 221h2l1-5z"/><path fill="#cb7e64" d="M546 660h2c-3.261 12.83-12.161 24.84-19 36l-2-4 2-1v-7l2-1 3 1q.509-3.499 1-7h3l-.062-4 .062-4h4v-2h2l-1-4h3z"/><path fill="#c8866d" d="M814 168h2c-1.33 5.448-4.076 10.32-6.562 15.313-4.555 9.308-8.198 18.805-11.57 28.598-2.7 7.837-2.7 7.837-4.868 11.089 0-6.617 1.716-10.84 4-17 .382-2.326.74-4.657 1-7h1l1-5 4-2v-7l4-2v-5l2-3h2v-5h2z"/><path fill="#cb7a5f" d="M663 803c4.12-.565 7.815-.27 12 0-4.186 4.186-8.643 7.142-13.625 10.25l-2.64 1.68C652.257 819 652.257 819 650 819l1-4h4l-1-4 2.75-.875L660 809l1.125-3.125z"/><path fill="#ca846c" d="m884 89-7.062 6.125-3.973 3.445L869 102l-3.934 3.742L862 108l-1-5 4 1-1-5h4l1-5 3 1 1-3-5 2-4-1a924 924 0 0 1 7.75-2.562l4.36-1.442C880 88 880 88 884 89"/><path fill="#ca7e65" d="M554 549h1a226 226 0 0 1-.375 8.438l-.273 4.746C554 566 554 566 553 567l.063 4.438C553 576 553 576 551 578l-.875 3.5L549 585l-4 2-1 2h-2c1.167-4.05 2.572-7.963 4.18-11.86 3.3-8.077 5.292-16.109 7.023-24.66z"/><path fill="#c97f66" d="M506 193h2c-1.89 4.727-4.105 8.834-6.625 13.25-4.347 7.734-8.221 15.584-11.879 23.664L488 233h-1c.313-5 .313-5 1-10h2v-4h2v-4h2v-4h2v-2h2v-6l4-1v-5l4-1z"/><path fill="#ca8067" d="M764 650h2c-.29 8.096-2.682 15.654-4.937 23.375l-1.092 3.848c-2.707 9.381-2.707 9.381-4.971 12.777.64-7.16 1.938-14.11 3.309-21.156.556-3.093.934-6.218 1.254-9.344L760 656h2l1-3z"/><path fill="#c97b60" d="M776 307h1c1.676 15 2.169 31.035 0 46h-2c-.379-2.781-.379-2.781-.562-6.5-.222-4.072-.509-7.964-1.125-12-.313-3.5-.313-3.5.632-6.133 1.344-4.289 1.448-8.257 1.617-12.742.113-2.877.248-5.753.438-8.625"/><path fill="#cb7d62" d="M476 258h3c-.535 3.731-1.214 7.32-2 11l-1.035 5.887c-.34 1.914-.678 3.828-1.027 5.8l-1.036 5.887L473 291h-1a160 160 0 0 1-.562-6.812l-.254-3.833c-.153-2.795-.184-5.557-.184-8.355h-2c.25-3 .25-3 1-6h2l1-2h2l.438-3z"/><path fill="#ca7d64" d="m576 121 3 1-2.457 1.871c-6.53 4.995-12.977 10.062-19.3 15.317C555 141 555 141 552 143l-1-4h4v-5c3-.625 3-.625 6-1v-3h3v-2h3l.188-3.062L568 122c4.063.25 4.063.25 8 1z"/><path fill="#cf8369" d="M245 313h1c.437 10.452-.104 20.987-.437 31.438l-.12 4.275-.127 4.033-.11 3.646L245 359h-1c-.24-2.328-.416-4.664-.562-7l-.254-3.937L243 345l-.812 3.375C241 352 241 352 238 354l.5-4.812C239 344 239 344 239 341c1.375-4.187 1.375-4.187 3-8h2a394 394 0 0 0 0-10c.26-3.34.573-6.677 1-10"/><path fill="#c5846d" d="M557 340c5 2 5 2 7 5l-3.672.113c-13.674.537-26.935 2.23-40.402 4.606L517 350v-2a285 285 0 0 1 9-2l1-1a177 177 0 0 1 6.66-.684l4.092-.373q4.316-.381 8.633-.75l4.088-.377 3.789-.33L557 342z"/><path fill="#ca7e64" d="m526 362-2.875.125L520 363c-1.25 3-1.25 3-2 6l-2 1v-4l-5 1-2 4-5 3-1-3-5 2-4-1c25.402-11.65 25.402-11.65 32-10"/><path fill="#ca7a5e" d="m536 327-3 2v-2h-5v-2c-3-.046-6-.038-9 0-5.424-.633-10.7-1.675-16-3l1-3c9.758-3.253 23.065 4.569 32 8"/><path fill="#c88771" d="m71 830 2 1-3 6c2.665.085 5.335.082 8 0-3.559 2.372-6.915 3.36-11 4.625l-4.312 1.352C59 844 59 844 56 844v-2a396 396 0 0 1 8-6l3.875-3.437z"/><path fill="#ca7f64" d="M530 584c-1.691 6.919-5.958 12.269-10 18l-2.012 2.918C516.125 607.5 516.125 607.5 513 611l-2-4 2-1v-4h2l1.438-2.937C518 596 518 596 521 595l1-5h4v-5c2-1 2-1 4-1"/><path fill="#cb846d" d="M410 573v1c-6.649 1.135-13.276 1.15-20 1.125l-3.156.012c-5.688-.007-11.23-.179-16.844-1.137v-1c6.241-1.28 12.528-1.422 18.875-1.687l3.473-.182c6.254-.263 11.635-.179 17.652 1.869"/><path fill="#c88169" d="M506 405c10.275-.363 10.275-.363 13 1 3.407.276 6.813.447 10.227.621L532 407v2l5.5-.687L543 408v5h5l-1 2a230 230 0 0 1-7.363-2c-9.374-2.577-19.058-4.843-28.762-5.625L507 407z"/><path fill="#cb7557" d="M341 390h1l1 5 3 1c-1 4-1 4-3 8h-2v2l-3-1-2 2-2-1c1.591-5.835 3.747-10.903 7-16"/><path fill="#c97f67" d="M411 357h1c.188 4.5.188 4.5 0 9h-2l.5 4.313c.595 5.58-.533 6.237-3.5 10.687-.614 3.704-1.018 7.41-1.437 11.14L405 395l-2-1c-.827-12.523 3.73-25.366 8-37"/><path fill="#ca7c61" d="M445 297c2.665-.083 5.335-.083 8 0-4.786 3.19-9.887 5.837-14.922 8.613C434 308 434 308 430.047 311.043L427 313l-1-4h2v-2h4l-1-3c2.465-2.465 4.715-2.952 8-4l1-1h5z"/><path fill="#cd836b" d="m441 579-3 1.375-3 1.625v2h-2v2l-5-1c-2.342.634-4.674 1.31-7 2q-3.46.674-6.937 1.25l-3.465.578L408 589v-2h-6v-1a274 274 0 0 1 6.688-.687c9.033-1.036 17.416-3.49 26.085-6.168C439 578 439 578 441 579"/><path fill="#cc7658" d="M534 554h4c.786 9.142-.321 15.64-4 24h-1c-.033-3.65.07-7.29.16-10.937L533 564h-2l1-4h2l-1-5z"/><path fill="#cb7e63" d="M371 503c5.735 2.294 10.986 5.176 16.406 8.125C391 513 391 513 396 515l-3 2v-2h-6l-3-1-3.062.688L378 515l-2-4-2.625-2-2.375-2z"/><path fill="#c9836b" d="m329 513 3 1v6h2v5h2v5h2v4h2v4l5 1c2 5.063 2 5.063 3 10h-3c-6.353-9.545-16-24.111-16-36"/><path fill="#c88770" d="m318 837-1 2h-4v2q4.994.562 10 1v1c-8.977 1.282-17.95 1.095-27 1 2.643-2.643 5.238-3.358 8.75-4.625l3.672-1.352C312 837 312 837 318 837"/><path fill="#cb7b60" d="M332 440h6l-1 4h2v2l4 2c1 4 1 4-1 8h2l-1 4a1209 1209 0 0 1-4.375-6.625l-2.46-3.727c-3.717-6.265-3.717-6.265-4.165-9.648m197 5c3.5.75 3.5.75 7 2v2l4 2v2l2 1v12c-3-4-3-4-5.937-8.937-2.218-3.666-4.39-6.772-7.063-10.063z"/><path fill="#ce6848" d="M623 91c1.25 3 1.25 3 1 6-3.437.25-3.437.25-7 0v2h-6v-2h-4v-2h2v-2c4.84-1.3 8.974-2 14-2"/><path fill="#ca7b5e" d="m466 769 4 1c-6.016 6.21-12.127 11.75-19 17h-1v-6h4v-4h3v-3h4l1-3 4 1z"/><path fill="#c97c61" d="M602 472c3.983 4.596 7.004 9.732 10 15l1.566 2.73C615 492.375 615 492.375 617 497l-2 4-1-5-4 1a162 162 0 0 1 0-9h-2c-2-4-2-4-2.375-7.187L605 478l-4-1z"/><path fill="#ca7d63" d="M523 698h3c-2.292 9.17-9.512 17.426-15 25h-1v-6h2v-5l4-1v-4h2v-2h2v-2h2z"/><path fill="#c97d63" d="M440 397h3c-1.03 5.146-2.425 7.526-5.312 11.813-3.267 4.939-6.122 9.841-8.688 15.187h-1c-.75-3.312-.75-3.312-1-7l3-3h2v-5c1.813-3.312 1.813-3.312 4-6h3l.5-3z"/><path fill="#c98167" d="M378 492c5.5.188 5.5.188 11 1v4a174 174 0 0 0 9 2v2l5 1 4 3c-4.625 1.542-7.33-.65-11.687-2.625l-4.7-2.102A109 109 0 0 1 378 493z"/><path fill="#c87e64" d="M308 131c-1.874 4.684-3.707 7.425-6.812 11.313-2.993 3.795-5.648 7.434-8.188 11.562L291 157l-2-1v-4h3v-2h2v-5h2v-2h2l.313-2.937L299 137l5-1-1-4c2-1 2-1 5-1"/><path fill="#ca8369" d="M500 535c1 3 1 3 0 6h-2v2h-2v2h-2v2l-5 3-1 3h-2l-1 5c-5.062 1.313-5.062 1.313-10 2 3.128-3.232 6.391-6.263 9.75-9.25 13.349-11.948 13.349-11.948 15.25-15.75"/><path fill="#cd836a" d="M390 418h1c.507 2.72.953 5.453 1.375 8.188.93 5.88 2.01 11.61 3.5 17.375L397 449l-3 1-3-2c-.223-2.828-.223-2.828-.062-6.25.212-4.723.02-8.387-1.938-12.75l-2 1 1-4 1-4.25z"/><path fill="#c97659" d="M301 110c-2 4-2 4-7 6l-1 2h-6l-4 3-4-1a582 582 0 0 1 7.063-5l3.972-2.812c4.078-2.25 6.38-3.084 10.965-2.188"/><path fill="#c97e64" d="M378 312c1 4 1 4-1 9l-.375 5.125L376 331c-4 3-4 3-6 3l-1 5-1 2h-2c1.919-6.81 4.752-13.138 7.688-19.562l2.449-5.38z"/><path fill="#c67e65" d="m776 151 1 2c-1.237 3.71-3 4.6-6 7l-1 3h-2l-1 4-3 1a881 881 0 0 0-3 7l-4 4-3-1c1.36-2.336 1.36-2.336 3.75-5.375l2.559-3.273L763 166l2.473-3.102c3.373-4.178 6.722-8.093 10.527-11.898"/><path fill="#c87a60" d="M92 811c1 4 1 4 0 7h-3l-2 4-3 3-1 4h-2v-2l-5 2h-3l3.14-2.922 4.11-3.828 4.078-3.797A349 349 0 0 0 92 811"/><path fill="#cc7f65" d="m464 566 2 1-1 5a150 150 0 0 1-6-1l-1 4c-4.375 2.313-4.375 2.313-9 4l-3-1-4-1 4.559-2.152 5.878-2.785 3.01-1.42c7.44-3.53 7.44-3.53 8.553-4.643"/><path fill="#ca8067" d="M864 95v2l-3.375.938C857 99 857 99 855 102c-3.375.125-3.375.125-7 0l-4 1-1 5-2-1c-2.333-.04-4.667-.043-7 0 4.845-3.634 10.046-5.852 15.563-8.25l3.193-1.43c7.883-3.44 7.883-3.44 11.244-2.32"/><path fill="#cb7e64" d="m433 790 2 1v2h4v-2l5 1a260 260 0 0 1-10.5 8.063l-2.781 2.035C423.713 807 423.713 807 421 807v-2h2v-2h4v-4a174 174 0 0 1 9-2v-2h-3l-1-4z"/><path fill="#c87e65" d="M584 436c7.692 1.538 7.692 1.538 11 3v4l4 2a175 175 0 0 1 4 5l2 1v4l4 2-2 2c-2.941-2.84-2.941-2.84-6.562-6.937-5.18-5.723-10.206-10.55-16.438-15.063z"/><path fill="#cb7b60" d="m472 166 2 3-1 4h-5l-.312 3.938L467 181l-10 2a1010 1010 0 0 1 6-7l2.332-2.797 2.418-2.828 2.297-2.727z"/><path fill="#cf917c" d="M322 449c2.906 2.906 4.717 5.55 6.813 9.063l1.957 3.222L332 464l-2 2v-2h-3a169 169 0 0 1-2-6h-2c-.288 3.493-.454 6.997-.562 10.5A498 498 0 0 1 322 479h-1a429 429 0 0 1-.125-12.187l-.012-3.487c.006-4.945.164-9.463 1.137-14.326"/><path fill="#c9836c" d="M164 653h1c-.04 3.865-.15 7.702-.312 11.563l-.108 3.29c-.232 5.687-.802 10.741-2.58 16.147v3h-2v6c-4.464-6.696.123-18.874 1.5-26.562l.684-3.924A480 480 0 0 1 164 653"/><path fill="#c97e63" d="M421 313h4c-2 4-2 4-5.25 7.688-2.791 3.21-4.874 5.997-7.062 9.562L410 334l-2-4 2-3h2l1-4 2-4h3v-4h3z"/><path fill="#cb7c63" d="M538 149c3.563-.25 3.563-.25 7 0-4.42 5.303-9.084 10.166-14 15l-2 2c-.375-3.937-.375-3.937 0-8 3-.75 3-.75 6-1v-4h2z"/><path fill="#c98169" d="M605 93v2l-6 1v2q-4.995 1.024-10 2l-2 2a225 225 0 0 1-11-1c4.278-2.852 9.024-3.81 13.938-5.125l3.037-.84C597.086 93.922 600.72 93 605 93"/><path fill="#c4826a" d="m454 405 1 2-2 3 1 3 1-2q5-.125 10 0c-3.715 2.477-7.55 3.945-11.687 5.625l-4.7 1.914L445 420c2.336-5.84 5.22-9.983 9-15"/><path fill="#ca7f67" d="m176 315 4 2c-.096 4.515-.737 5.737-4 9-.402 3.66-.727 7.328-1 11-.582 3.018-1.22 6.027-2 9h-1c.067-2.981.206-5.96.375-8.937l.273-5.028c.662-9.478.662-9.478 1.352-14.035h2z"/><path fill="#ca856e" d="M697 645h1c.13 3.696.185 7.366.188 11.063l.037 3.146c.01 5.57-.12 10.585-2.225 15.791h-2v6l-2 1c.737-8.088 1.813-16.094 3-24.125l.54-3.766c.447-3.042.948-6.077 1.46-9.109"/><path fill="#cb8a73" d="M700 605h1c2.298 12.592 1.747 25.75-2 38h-1c.068-3.148.208-6.294.375-9.437l.305-5.758L699 622l.258-5.18.242-4.633.219-4.207z"/><path fill="#cc7f63" d="M325 109c0 5 0 5-3.75 9.063L317 122l-4 4v-5h2v-5h2l2-5c4-2 4-2 6-2"/><path fill="#ca8168" d="M536 598c1.226 4.903.431 5.725-2 10l-1.812 3.75c-2.548 3.786-3.892 4.153-8.188 5.25l-3 3-2-1a768 768 0 0 1 6.395-6.234c4.207-4.466 7.377-9.568 10.605-14.766"/><path fill="#cb8066" d="M646 785c1 3 1 3 0 8l-2 1v5l-1-2-5 1v3h-2v2l-5 1 2.438-2.75c4.408-5.259 8.485-10.733 12.562-16.25"/><path fill="#c98369" d="M236 620h1c1.217 7.652.596 14.048-.875 21.625l-.566 3.043A229 229 0 0 1 234 652h-1a372 372 0 0 1-.187-11.875l-.038-3.418c-.005-2.903.102-5.806.225-8.707l2-2q.541-2.993 1-6"/><path fill="#ca7659" d="M622 461h1c.128 2.664.176 5.333.188 8l.042 4.5-.23 3.5h-2v-2h-3c-4-5.257-4-5.257-4-8l5 1v-2l2-1z"/><path fill="#cf775a" d="M171 351h1l.313 4.875L173 361l4 2c.53 5.94.53 5.94-1 9h-2l-1 5h-1c-1.211-8.611-1.366-17.315-1-26"/><path fill="#c87e65" d="M711 289h1c.216 2.434.371 4.873.5 7.313.392 7.362.392 7.362 1.5 10.687l-3 3a303 303 0 0 0-2 10h-1c-.546-10.52.918-20.69 3-31"/><path fill="#cb7a5f" d="m511 520 1 4 1 2c-.625 2.938-.625 2.938-2 6-5 3-5 3-10 3l6-9 2.375-3.562z"/><path fill="#c8836b" d="M391 823c-8.426 5.617-19.16 8.843-29 11v-2h3v-3q3.984-.624 8-1v-1l3.438.125L380 827l1-3c4-1 4-1 10-1"/><path fill="#c97f66" d="m147 723 3 3c-1 4-1 4-2 6h-2a252 252 0 0 0-1.875 8.063C143 744 143 744 140 747h-2c.855-3.045 1.908-6.032 3-9l1.438-4.043L144 729.75l1.5-4.078z"/><path fill="#cc7a5e" d="m478 612 1 2 2.75-.937C485 612 485 612 490 613c3.703.293 7.405.505 11.113.719L504 614v1c-2.658.433-5.327.796-8 1.125l-4.5.57-3.5.305v-1c-3.682.01-7.355.135-11.035.258L474 616l1-3z"/><path fill="#ca7a5e" d="M551 111c-.125 2.938-.125 2.938-1 6l-4 1-1 2-5 2-1-2-4-2q3.434-1.756 6.875-3.5l3.867-1.969C549 111 549 111 551 111"/></svg>