<?xml version="1.0" standalone="no"?>
<!DOCTYPE svg PUBLIC "-//W3C//DTD SVG 20010904//EN"
 "http://www.w3.org/TR/2001/REC-SVG-20010904/DTD/svg10.dtd">
<svg version="1.0" xmlns="http://www.w3.org/2000/svg"
 width="1024.000000pt" height="1024.000000pt" viewBox="0 0 1024.000000 1024.000000"
 preserveAspectRatio="xMidYMid meet">
<metadata>
Created by potrace 1.16, written by Peter Selinger 2001-2019
</metadata>
<g transform="translate(0.000000,1024.000000) scale(0.100000,-0.100000)"
fill="#d97757" stroke="none">
<path d="M5437 8294 c-11 -12 -8 -72 5 -80 16 -10 34 19 33 53 -2 27 -23 42
-38 27z"/>
<path d="M5701 8015 c-13 -49 -14 -88 -2 -80 11 6 25 88 18 107 -2 7 -9 -5
-16 -27z"/>
<path d="M5365 7944 c-14 -52 -15 -71 -6 -90 6 -14 9 -29 6 -34 -9 -14 19 -27
63 -28 35 -1 42 2 42 18 0 10 5 22 10 25 15 9 12 25 -5 25 -17 0 -20 27 -4 32
17 6 -61 117 -82 118 -3 0 -14 -30 -24 -66z"/>
<path d="M3501 7972 c-15 -28 -14 -32 8 -32 11 0 23 -4 26 -10 11 -17 22 -11
21 13 -1 17 5 22 27 23 35 1 49 14 15 14 -14 0 -39 3 -56 6 -24 5 -32 2 -41
-14z"/>
<path d="M7710 7965 c-14 -17 -5 -35 19 -35 20 0 41 19 41 37 0 18 -45 17 -60
-2z"/>
<path d="M3696 7814 c-3 -9 -6 -23 -6 -32 1 -14 5 -12 20 7 11 13 20 27 20 32
0 15 -28 10 -34 -7z"/>
<path d="M3344 7753 c-17 -27 -39 -63 -49 -82 l-18 -35 32 -28 c17 -15 38 -28
46 -28 8 0 15 -7 15 -15 0 -24 36 -17 48 10 6 14 15 25 19 25 13 0 15 118 3
132 -5 7 -19 25 -31 41 -11 15 -24 27 -27 27 -4 0 -21 -21 -38 -47z"/>
<path d="M7482 7632 c-15 -22 -36 -58 -47 -82 l-19 -43 29 -24 c61 -50 114
-52 116 -4 1 14 2 33 3 41 1 8 5 21 9 28 10 15 -1 72 -14 72 -5 0 -14 11 -19
25 -13 34 -25 31 -58 -13z"/>
<path d="M3527 7505 c-24 -50 -22 -79 2 -40 23 37 35 75 24 75 -5 0 -17 -16
-26 -35z"/>
<path d="M3122 7338 c-20 -26 -53 -100 -49 -111 4 -11 83 -15 91 -5 2 1 6 16
10 31 6 24 3 30 -14 34 -23 6 -25 14 -9 30 11 11 5 33 -10 33 -5 0 -13 -6 -19
-12z"/>
<path d="M7271 7218 c-46 -103 -55 -136 -41 -153 19 -23 39 -18 46 11 4 14 19
39 35 55 23 23 27 35 22 59 -3 19 -1 30 6 30 19 0 12 39 -8 50 -11 5 -22 10
-26 10 -3 0 -18 -28 -34 -62z"/>
<path d="M2930 6864 c-11 -36 -20 -68 -20 -70 0 -2 14 -4 30 -4 17 0 30 -5 30
-11 0 -7 9 0 20 14 27 34 25 76 -5 110 -13 15 -26 27 -29 27 -3 0 -14 -30 -26
-66z"/>
<path d="M7112 6770 c-8 -19 -15 -53 -16 -75 -1 -38 1 -40 29 -40 21 -1 31 -6
33 -19 4 -16 5 -16 19 4 12 17 13 23 1 37 -10 13 -10 17 0 20 17 6 15 53 -2
53 -23 0 -31 22 -13 35 24 17 21 25 -9 23 -20 -2 -31 -11 -42 -38z"/>
<path d="M5022 6560 c-18 -16 -32 -38 -32 -50 0 -27 10 -21 45 30 35 50 29 59
-13 20z"/>
<path d="M2840 6505 c-13 -34 -13 -95 0 -95 15 0 30 36 30 74 0 44 -17 56 -30
21z"/>
<path d="M7039 6379 c-9 -9 -19 -33 -23 -53 -5 -28 -3 -38 9 -42 26 -10 36 9
33 62 -3 45 -4 48 -19 33z"/>
<path d="M5126 6351 c-13 -21 4 -51 29 -51 13 0 27 5 30 10 9 15 25 12 25 -5
0 -23 16 -18 34 10 15 23 21 25 69 20 42 -4 47 -3 28 5 -38 17 -207 25 -215
11z"/>
<path d="M4747 6184 c-15 -14 -27 -35 -27 -46 0 -18 6 -14 31 20 37 50 35 62
-4 26z"/>
<path d="M4913 6138 c-11 -13 -41 -54 -66 -92 -51 -76 -50 -92 9 -122 32 -17
41 -13 19 9 -9 10 -11 18 -5 22 6 3 7 17 4 30 -8 33 2 48 26 35 15 -8 24 -3
48 28 l30 37 -19 38 c-11 20 -21 37 -22 37 -2 0 -13 -10 -24 -22z"/>
<path d="M4146 6072 c-26 -53 -28 -80 -5 -87 11 -4 22 -5 23 -3 43 64 48 103
16 111 -15 4 -24 -2 -34 -21z"/>
<path d="M2786 6078 c-11 -37 -13 -58 -5 -58 5 0 9 9 9 19 0 11 5 23 10 26 6
3 10 10 10 16 0 14 -20 11 -24 -3z"/>
<path d="M6064 5903 c16 -33 33 -49 42 -40 3 3 -9 20 -26 39 l-31 33 15 -32z"/>
<path d="M4682 5742 l-23 -52 28 -25 c34 -30 34 -30 67 -4 34 27 33 33 -8 53
-28 13 -35 23 -38 49 -3 32 -3 32 -26 -21z"/>
<path d="M5915 5760 c78 -37 88 -37 34 0 -24 16 -55 29 -69 29 -19 0 -11 -7
35 -29z"/>
<path d="M4064 5745 c-11 -28 13 -263 32 -322 18 -54 40 -75 28 -27 -4 14 -1
43 6 65 10 29 10 42 1 53 -9 10 -9 24 1 60 9 36 9 53 0 79 -7 18 -12 40 -12
48 0 9 -11 26 -25 39 -23 21 -25 22 -31 5z"/>
<path d="M5395 5721 l-30 -6 33 -14 c26 -11 38 -11 59 -2 22 10 24 14 12 22
-16 10 -29 10 -74 0z"/>
<path d="M5720 5667 c0 -18 36 -51 48 -43 5 3 39 -6 76 -20 64 -25 85 -27 72
-6 -3 6 -39 24 -79 40 -103 42 -117 46 -117 29z"/>
<path d="M5576 5591 c-7 -10 52 -67 60 -59 3 4 3 15 0 26 -7 21 -52 46 -60 33z"/>
<path d="M6236 5565 c-18 -14 -17 -17 24 -70 67 -87 75 -83 37 19 -24 65 -33
72 -61 51z"/>
<path d="M4616 5554 c-3 -9 -6 -23 -6 -32 1 -15 3 -14 15 2 17 22 20 46 6 46
-5 0 -12 -7 -15 -16z"/>
<path d="M5694 5456 c-5 -14 24 -76 36 -76 3 0 12 15 20 33 7 17 16 36 18 41
3 5 -5 7 -17 3 -11 -3 -24 -1 -27 4 -8 14 -24 11 -30 -5z"/>
<path d="M6110 5438 c0 -19 38 -78 50 -78 6 0 16 -13 21 -29 11 -30 39 -50 39
-28 0 14 -82 131 -99 142 -6 3 -11 0 -11 -7z"/>
<path d="M3926 5391 c-24 -27 -35 -74 -43 -183 -7 -108 1 -121 37 -64 11 19
37 49 57 66 l36 32 -27 84 c-15 46 -31 84 -35 84 -5 0 -15 -8 -25 -19z"/>
<path d="M4423 5385 c-3 -9 -3 -30 1 -47 3 -17 1 -36 -4 -43 -11 -14 -3 -45
11 -45 5 0 9 24 9 53 0 28 3 62 6 75 7 25 -13 31 -23 7z"/>
<path d="M2794 5328 c2 -24 4 -47 5 -51 1 -5 6 -7 13 -5 6 2 12 25 13 51 2 40
0 47 -16 47 -16 0 -18 -6 -15 -42z"/>
<path d="M4230 5145 c0 -10 64 -95 72 -95 16 0 7 27 -19 63 -24 31 -53 49 -53
32z"/>
<path d="M4139 4994 c27 -50 89 -117 101 -109 10 6 -97 145 -112 145 -4 0 1
-16 11 -36z"/>
<path d="M5826 4964 c-9 -24 -7 -112 3 -118 4 -3 18 5 30 18 15 16 19 26 11
31 -6 4 -9 18 -5 33 4 20 0 30 -14 39 -16 10 -20 9 -25 -3z"/>
<path d="M4001 4919 c-13 -13 -36 -38 -53 -56 l-31 -32 18 -68 c17 -64 57
-123 83 -123 5 0 8 32 6 75 -2 44 1 75 7 75 5 0 2 14 -6 31 -19 36 -12 48 16
31 45 -28 52 13 11 59 l-29 32 -22 -24z"/>
<path d="M4436 4705 c3 -8 14 -17 25 -20 10 -4 19 -11 19 -16 0 -5 8 -9 18 -9
12 1 8 8 -18 30 -38 33 -52 38 -44 15z"/>
<path d="M5530 4605 c-31 -32 -30 -41 2 -36 4 0 14 -15 22 -34 8 -19 18 -35
21 -35 3 0 15 20 26 45 20 44 19 65 -3 65 -6 0 -16 7 -22 15 -10 14 -16 11
-46 -20z"/>
<path d="M7142 4543 c2 -10 10 -18 18 -18 22 0 18 29 -3 33 -14 3 -18 -1 -15
-15z"/>
<path d="M4230 4514 c0 -7 66 -34 85 -34 29 0 15 17 -24 28 -42 13 -61 15 -61
6z"/>
<path d="M4825 4500 c-4 -6 12 -10 42 -9 39 1 43 3 23 9 -36 11 -58 11 -65 0z"/>
<path d="M5710 4445 c-25 -59 -25 -57 8 -53 27 3 28 5 34 67 5 43 -21 35 -42
-14z"/>
<path d="M4973 4469 c12 -7 27 -7 45 0 25 9 24 9 -18 10 -36 0 -41 -2 -27 -10z"/>
<path d="M5320 4445 c-10 -12 -9 -16 5 -21 17 -7 38 13 29 28 -8 12 -20 10
-34 -7z"/>
<path d="M4765 4440 c-4 -6 8 -10 29 -10 20 0 36 5 36 10 0 6 -13 10 -29 10
-17 0 -33 -4 -36 -10z"/>
<path d="M4110 4400 c0 -14 60 -80 74 -80 6 0 17 9 24 20 11 18 8 22 -38 45
-55 28 -60 29 -60 15z"/>
<path d="M5143 4368 c-36 -12 -42 -23 -18 -32 8 -3 15 -1 15 4 0 5 10 10 22
12 12 2 23 9 26 16 4 14 -1 14 -45 0z"/>
<path d="M5367 4192 c-10 -10 -17 -26 -17 -34 0 -9 -7 -21 -15 -28 -8 -7 -15
-20 -15 -29 1 -19 89 77 90 97 0 18 -24 15 -43 -6z"/>
<path d="M5497 4063 c-53 -83 -59 -97 -44 -112 17 -17 32 -13 64 18 17 15 36
30 43 33 8 2 14 23 16 54 1 40 -2 53 -17 62 -17 11 -24 5 -62 -55z"/>
<path d="M4510 4051 c0 -13 63 -51 84 -51 9 0 16 7 16 15 0 8 -8 15 -18 15
-10 0 -27 7 -38 15 -22 16 -44 19 -44 6z"/>
<path d="M5101 3900 c-18 -16 -20 -20 -6 -20 24 0 56 20 50 31 -9 13 -17 11
-44 -11z"/>
<path d="M5275 3680 c-40 -78 -40 -80 -22 -80 21 0 77 87 77 120 0 48 -17 35
-55 -40z"/>
<path d="M2965 3214 c-11 -12 -15 -31 -13 -70 3 -49 5 -54 27 -54 17 0 22 4
17 16 -4 9 -2 22 2 28 11 13 3 96 -8 96 -5 0 -16 -7 -25 -16z"/>
<path d="M7047 2732 c-18 -19 -50 -102 -43 -109 9 -9 66 41 66 58 0 9 6 22 14
29 17 13 11 40 -9 40 -6 0 -19 -8 -28 -18z"/>
<path d="M6811 2259 c-33 -54 -39 -79 -18 -79 27 0 54 29 50 53 -3 14 0 28 6
31 13 8 15 46 2 46 -4 0 -22 -23 -40 -51z"/>
<path d="M2595 2235 c-44 -68 -44 -79 -2 -72 21 3 38 -1 50 -11 16 -14 19 -14
32 4 8 10 12 25 10 33 -3 7 0 20 6 27 14 18 -18 74 -43 74 -11 0 -32 -22 -53
-55z"/>
<path d="M6635 1994 c-15 -19 -24 -38 -21 -41 3 -3 28 -8 54 -11 56 -5 77 11
33 26 -24 8 -28 14 -24 36 7 36 -10 32 -42 -10z"/>
<path d="M4950 1960 c0 -11 6 -20 14 -20 24 0 28 18 6 30 -17 9 -20 8 -20 -10z"/>
</g>
</svg>
